<svg width="16" height="16" viewBox="0 0 16 16" fill="#CC9900" xmlns="http://www.w3.org/2000/svg">
<path fill-rule="evenodd" clip-rule="evenodd" d="M8 1.25C4.27208 1.25 1.25 4.27208 1.25 8C1.25 11.7279 4.27208 14.75 8 14.75C11.7279 14.75 14.75 11.7279 14.75 8C14.75 4.27208 11.7279 1.25 8 1.25ZM0 8C0 3.58173 3.58173 0 8 0C12.4183 0 16 3.58173 16 8C16 12.4183 12.4183 16 8 16C3.58173 16 0 12.4183 0 8ZM5.8125 6.53125C5.8125 6.18607 6.09232 5.90625 6.4375 5.90625H6.75C7.78552 5.90625 8.625 6.74573 8.625 7.78125V11.3125H9.5625C9.90768 11.3125 10.1875 11.5923 10.1875 11.9375C10.1875 12.2827 9.90768 12.5625 9.5625 12.5625H6.4375C6.09232 12.5625 5.8125 12.2827 5.8125 11.9375C5.8125 11.5923 6.09232 11.3125 6.4375 11.3125H7.375V7.78125C7.375 7.43608 7.09517 7.15625 6.75 7.15625H6.4375C6.09232 7.15625 5.8125 6.87643 5.8125 6.53125Z"/>
<path d="M8.625 4.5C8.625 4.93147 8.27522 5.28125 7.84375 5.28125C7.41228 5.28125 7.0625 4.93147 7.0625 4.5C7.0625 4.06853 7.41228 3.71875 7.84375 3.71875C8.27522 3.71875 8.625 4.06853 8.625 4.5Z"/>
</svg>
