<svg width="16" height="16" viewBox="0 0 16 16" fill="black" fill-opacity="0.8" xmlns="http://www.w3.org/2000/svg">
<path fill-rule="evenodd" clip-rule="evenodd" d="M14.5666 1.43357C14.387 1.25399 14.1244 1.20564 13.8996 1.29212L2.40924 5.71151C2.40919 5.71152 2.40915 5.71154 2.40911 5.71156C2.32797 5.7428 2.2543 5.79077 2.19291 5.85234L2.19227 5.85298C1.94818 6.09706 1.94818 6.49277 2.19227 6.73685L2.193 6.73758C2.26995 6.81478 2.36593 6.87028 2.47122 6.89847L2.4713 6.89849L6.65601 8.01941C6.65603 8.01941 6.65605 8.01942 6.65607 8.01942C6.97376 8.1045 7.26338 8.2719 7.49566 8.50472C7.72838 8.73699 7.89571 9.02654 7.98077 9.34415L9.10166 13.5289L9.10168 13.5289C9.12988 13.6342 9.18539 13.7302 9.26261 13.8072L9.26328 13.8079C9.5074 14.052 9.90312 14.052 10.1472 13.8079L10.1478 13.8073C10.2094 13.7458 10.2574 13.6721 10.2887 13.5908L14.708 2.10061L14.708 2.10058C14.7945 1.87576 14.7462 1.61312 14.5666 1.43357ZM13.4508 0.125449C14.1199 -0.131932 14.9091 0.0082826 15.4505 0.549691C15.9919 1.09108 16.1321 1.88022 15.8747 2.54933C15.8747 2.54934 15.8747 2.54935 15.8747 2.54936L11.4552 14.04C11.361 14.2846 11.2165 14.5067 11.0309 14.6919C10.2989 15.4238 9.11235 15.424 8.38009 14.6925C8.38007 14.6924 8.38005 14.6924 8.38003 14.6924C8.14695 14.46 7.97936 14.1702 7.89423 13.8523C7.89422 13.8523 7.89422 13.8522 7.89421 13.8522L6.77333 9.66753L6.77332 9.6675C6.74511 9.56218 6.68959 9.46617 6.61236 9.38918L6.61097 9.38779C6.534 9.31058 6.43801 9.25507 6.33271 9.22687L6.33265 9.22686L2.14796 8.10595C1.8302 8.02088 1.54054 7.85345 1.30823 7.62057C0.576234 6.88843 0.576192 5.70158 1.3081 4.96938C1.49332 4.78373 1.71551 4.63912 1.96026 4.54492L13.4508 0.125449C13.4508 0.125446 13.4508 0.125453 13.4508 0.125449ZM11.9149 4.08521C12.159 4.32929 12.159 4.72502 11.9149 4.9691L9.26329 7.62074C9.01921 7.86482 8.62349 7.86482 8.37941 7.62074C8.13533 7.37667 8.13533 6.98094 8.37941 6.73686L11.0311 4.08521C11.2751 3.84113 11.6709 3.84113 11.9149 4.08521ZM2.83469 9.62991C3.07876 9.87399 3.07876 10.2697 2.83469 10.5138L1.06694 12.2815C0.822864 12.5256 0.427136 12.5256 0.183058 12.2815C-0.0610195 12.0375 -0.0610194 11.6417 0.183058 11.3977L1.9508 9.62991C2.19488 9.38583 2.59061 9.38584 2.83469 9.62991ZM3.71859 12.2816C3.96267 12.5256 3.96267 12.9214 3.71859 13.1654L1.06694 15.8171C0.822864 16.0612 0.427136 16.0612 0.183058 15.8171C-0.0610193 15.573 -0.0610193 15.1773 0.183058 14.9332L2.83471 12.2816C3.07878 12.0375 3.47451 12.0375 3.71859 12.2816ZM6.37024 13.1655C6.61432 13.4095 6.61432 13.8053 6.37024 14.0493L4.60249 15.8171C4.35842 16.0612 3.96269 16.0612 3.71861 15.8171C3.47453 15.573 3.47453 15.1773 3.71861 14.9332L5.48635 13.1655C5.73043 12.9214 6.12616 12.9214 6.37024 13.1655Z"/>
</svg>
