<svg width="14" height="16" viewBox="0 0 14 16" fill="black" fill-opacity="0.8" xmlns="http://www.w3.org/2000/svg">
<path fill-rule="evenodd" clip-rule="evenodd" d="M3.875 1.875C3.875 0.839447 4.71445 0 5.75 0H8.25C9.28555 0 10.125 0.839447 10.125 1.875V5.375C10.125 6.41052 9.28552 7.25 8.25 7.25H7.625V8.5H10.125C10.344 8.5 10.5544 8.53787 10.75 8.60739V6.625C10.75 5.58955 11.5893 4.75 12.625 4.75C12.9702 4.75 13.25 5.02982 13.25 5.375C13.25 5.72018 12.9702 6 12.625 6C12.2798 6 12 6.27982 12 6.625V10.375C12 11.4105 11.1605 12.25 10.125 12.25H7.625V13.5H9.5C10.5355 13.5 11.375 14.3395 11.375 15.375C11.375 15.7202 11.0952 16 10.75 16C10.4048 16 10.125 15.7202 10.125 15.375C10.125 15.0298 9.84517 14.75 9.5 14.75H7.625V15.375C7.625 15.7202 7.34518 16 7 16C6.65482 16 6.375 15.7202 6.375 15.375V14.75H4.5C4.15483 14.75 3.875 15.0298 3.875 15.375C3.875 15.7202 3.59518 16 3.25 16C2.90482 16 2.625 15.7202 2.625 15.375C2.625 14.3395 3.46448 13.5 4.5 13.5H6.375V12.25H3.875C2.83948 12.25 2 11.4105 2 10.375V6.625C2 6.27983 1.72017 6 1.375 6C1.02982 6 0.75 5.72018 0.75 5.375C0.75 5.02982 1.02982 4.75 1.375 4.75C2.41052 4.75 3.25 5.58948 3.25 6.625V8.60739C3.44563 8.53787 3.65604 8.5 3.875 8.5H6.375V7.25H5.75C4.71448 7.25 3.875 6.41052 3.875 5.375V1.875ZM8.25 6C8.59517 6 8.875 5.72017 8.875 5.375V1.875C8.875 1.5298 8.5952 1.25 8.25 1.25H5.75C5.4048 1.25 5.125 1.5298 5.125 1.875V5.375C5.125 5.72017 5.40483 6 5.75 6H8.25ZM3.875 9.75C3.53268 9.75 3.25 10.0327 3.25 10.375C3.25 10.7173 3.53268 11 3.875 11H10.125C10.4673 11 10.75 10.7173 10.75 10.375C10.75 10.0327 10.4673 9.75 10.125 9.75H3.875Z"/>
</svg>
