<svg width="16" height="16" viewBox="0 0 16 16" fill="black" fill-opacity="0.8" xmlns="http://www.w3.org/2000/svg">
<path fill-rule="evenodd" clip-rule="evenodd" d="M3.71875 2.01562C2.37775 2.01562 1.25 3.15236 1.25 4.60572C1.25 7.40483 3.10767 9.75203 5.40556 11.5347C5.40632 11.5353 5.40707 11.5358 5.40782 11.5364C5.64298 11.7184 5.91137 11.8529 6.19798 11.9322C6.53065 12.0243 6.72568 12.3686 6.6336 12.7013C6.54152 13.034 6.19719 13.229 5.86452 13.1369C5.4195 13.0137 5.00289 12.8046 4.63819 12.5214C4.63746 12.5209 4.63674 12.5203 4.63602 12.5197C2.23126 10.6533 0 7.98447 0 4.60572C0 2.50776 1.6425 0.765625 3.71875 0.765625C4.73636 0.765625 5.65377 1.16309 6.31865 1.74667C6.4947 1.9012 6.65679 2.07238 6.79975 2.25662C7.48038 1.36628 8.65038 0.765625 9.90625 0.765625C11.9825 0.765625 13.625 2.5078 13.625 4.60572C13.625 4.60976 13.625 4.61381 13.6249 4.61786C13.6171 5.01702 13.5794 5.41504 13.5121 5.80855C13.4538 6.14878 13.1308 6.3774 12.7906 6.31917C12.4504 6.26094 12.2218 5.93793 12.28 5.5977C12.3364 5.2679 12.3682 4.93435 12.375 4.59984C12.372 3.14932 11.2454 2.01562 9.90625 2.01562C8.45342 2.01562 7.4375 3.09175 7.4375 3.98438C7.4375 4.32955 7.15768 4.60938 6.8125 4.60938C6.46732 4.60938 6.1875 4.32955 6.1875 3.98438C6.1875 3.58172 5.95726 3.09267 5.49407 2.68612C5.03923 2.28689 4.40977 2.01562 3.71875 2.01562ZM7.0625 9.81003C7.0625 8.40403 8.20355 7.26562 9.60938 7.26562C10.3702 7.26562 11.0615 7.59068 11.5313 8.11835C12.001 7.59068 12.6924 7.26562 13.4532 7.26562C14.859 7.26562 16 8.40403 16 9.81003C16 9.81426 16 9.81849 15.9999 9.82272C15.9567 11.9531 14.5379 13.6085 13.0168 14.7425L12.6433 14.2414L13.0168 14.7425C12.1371 15.3983 10.9254 15.3983 10.0457 14.7425C8.52462 13.6085 7.10588 11.9531 7.06263 9.82272C7.06254 9.81849 7.0625 9.81426 7.0625 9.81003ZM10.9062 9.77188C10.9062 9.07403 10.3429 8.51562 9.60938 8.51562C8.89439 8.51562 8.31574 9.09267 8.31251 9.80405C8.347 11.3592 9.39377 12.6973 10.7928 13.7403L10.7928 13.7403C11.2292 14.0657 11.8333 14.0657 12.2697 13.7403C13.6688 12.6973 14.7155 11.3592 14.75 9.80405C14.7468 9.09267 14.1681 8.51562 13.4532 8.51562C12.7196 8.51562 12.1562 9.07405 12.1562 9.77188C12.1562 10.1171 11.8764 10.3969 11.5312 10.3969C11.1861 10.3969 10.9062 10.1171 10.9062 9.77188Z"/>
</svg>
