<svg width="16" height="16" viewBox="0 0 16 16" fill="black" fill-opacity="0.8" xmlns="http://www.w3.org/2000/svg">
<path fill-rule="evenodd" clip-rule="evenodd" d="M8.90918 9.15527e-05C9.25436 9.15527e-05 9.53418 0.279914 9.53418 0.625092V1.25572C10.0971 1.3805 10.5979 1.6703 10.9834 2.07176L11.4956 1.77066C11.7931 1.59574 12.1762 1.69516 12.3511 1.99273C12.526 2.2903 12.4266 2.67333 12.129 2.84826L11.6329 3.1399C11.731 3.42952 11.7842 3.73984 11.7842 4.06258C11.7842 4.38573 11.7309 4.69642 11.6326 4.98635L12.128 5.27628C12.4259 5.45063 12.5261 5.83347 12.3517 6.13138C12.1774 6.42929 11.7945 6.52947 11.4966 6.35512L10.9825 6.05427C10.5972 6.45528 10.0967 6.74475 9.53418 6.86945V7.50007C9.53418 7.84525 9.25436 8.12507 8.90918 8.12507C8.564 8.12507 8.28418 7.84525 8.28418 7.50007V6.86945C7.70964 6.74209 7.19976 6.44283 6.81127 6.02841L6.25299 6.35512C5.95508 6.52947 5.57224 6.42929 5.3979 6.13138C5.22355 5.83347 5.32372 5.45063 5.62164 5.27628L6.17462 4.95267C6.08346 4.67241 6.03419 4.37325 6.03419 4.06258C6.03419 3.75237 6.08332 3.45363 6.17422 3.17372L5.62058 2.84826C5.32301 2.67333 5.22359 2.2903 5.39852 1.99273C5.57344 1.69516 5.95648 1.59574 6.25405 1.77066L6.81038 2.09771C7.19898 1.68279 7.7092 1.38317 8.28418 1.25571V0.625092C8.28418 0.279914 8.564 9.15527e-05 8.90918 9.15527e-05ZM8.90918 2.43759C8.01171 2.43759 7.28419 3.16511 7.28419 4.06258C7.28419 4.96006 8.01171 5.68758 8.90918 5.68758C9.80663 5.68758 10.5342 4.96005 10.5342 4.06258C10.5342 3.16511 9.80663 2.43759 8.90918 2.43759ZM8.34287 12.3126C8.33769 12.3126 8.34801 12.3125 8.34287 12.3126V12.3126Z"/>
<path d="M2.37483 7.75007C1.52513 7.75007 1.02336 7.9075 0.498841 8.07207C0.478647 8.07841 0.458419 8.08476 0.438136 8.0911C0.108717 8.19421 -0.0747422 8.54485 0.0283671 8.87426C0.131476 9.20368 0.482109 9.38714 0.811527 9.28403C0.82918 9.27851 0.846636 9.27304 0.863916 9.26762C1.32468 9.12318 1.65927 9.01829 2.22054 9.00222C2.27012 9.0008 2.32147 9.00007 2.37483 9.00007C2.67228 9.00007 2.98551 9.10105 3.38985 9.30349C3.59115 9.40427 3.81571 9.53108 4.05118 9.66477C4.27413 9.79139 4.53318 9.93851 4.79291 10.0735C5.86896 10.6328 7.23486 11.1408 9.18719 10.9207C9.25442 10.9131 9.32235 10.9047 9.39099 10.8953C9.55228 10.8734 9.69247 10.8825 9.80492 10.9139L9.80501 10.9139C9.99381 10.9666 10.1302 11.0826 10.2004 11.2529C10.2798 11.4453 10.264 11.6072 10.2001 11.736C10.1336 11.8702 9.98846 12.0185 9.72545 12.1147L9.7254 12.1147C9.36057 12.2481 8.8751 12.308 8.34287 12.3126C7.7536 12.3154 7.16191 12.2466 6.65867 12.1143C6.32482 12.0266 5.98307 12.2261 5.89534 12.56C5.80761 12.8938 6.00712 13.2355 6.34096 13.3233C6.97084 13.4888 7.65866 13.5682 8.35394 13.5625C10.3386 13.5591 12.2124 13.0045 14.0501 12.3069C14.3424 12.196 14.595 12.3162 14.694 12.5061C14.8121 12.7329 14.7283 13.017 14.5045 13.1366C13.1982 13.8344 11.3033 14.75 8.44081 14.75C6.05933 14.75 3.84899 13.8218 2.44555 13.0603C1.91159 12.7706 1.44522 12.6647 1.09378 12.6377C0.919239 12.6243 0.775602 12.6305 0.668704 12.6419C0.615283 12.6476 0.571052 12.6546 0.536709 12.6611C0.182061 12.7283 -0.0771586 13.0743 0.0209181 13.4423C0.108475 13.7708 0.457423 13.966 0.786102 13.8869C0.82292 13.883 0.905285 13.8769 0.997977 13.884C1.18102 13.8981 1.47597 13.9564 1.84942 14.159C3.33404 14.9645 5.75986 16 8.44081 16C11.6025 16 13.7121 14.9771 15.0935 14.2391C15.9233 13.7958 16.2392 12.7673 15.8057 11.9345L15.8 11.9236C15.3641 11.0863 14.3917 10.8403 13.601 11.1403C12.9909 11.3719 12.2734 11.6442 11.4671 11.8666C11.541 11.5116 11.5044 11.136 11.3559 10.7761C11.1254 10.2173 10.6645 9.85588 10.1407 9.70984C9.83514 9.62461 9.51968 9.61631 9.2225 9.65674C7.49291 9.89201 6.33302 9.46524 5.3694 8.96438C5.13075 8.84034 4.89262 8.70511 4.66552 8.57615C4.43414 8.44477 4.1846 8.30347 3.94946 8.18575C3.48093 7.95118 2.96018 7.75007 2.37483 7.75007Z"/>
</svg>
