<svg width="16" height="16" viewBox="0 0 16 16" fill="black" fill-opacity="0.8" xmlns="http://www.w3.org/2000/svg">
<path fill-rule="evenodd" clip-rule="evenodd" d="M14.7434 1.96362C14.8023 1.55142 14.4485 1.19767 14.0363 1.25656L10.9428 1.69852C10.9418 1.69866 10.9408 1.6988 10.9398 1.69894C10.9389 1.69907 10.938 1.69919 10.9371 1.69931C10.4483 1.76453 10.2237 2.3936 10.5892 2.75914L11.0312 3.20107C11.2752 3.44514 11.2752 3.84086 11.0312 4.08493L5.36188 9.75424L4.91995 9.31231L5.36188 9.75424C5.1178 9.99832 5.11782 10.394 5.36186 10.6381L5.36188 10.6381C5.60595 10.8822 6.00168 10.8822 6.24576 10.6381L11.915 4.96881C12.0322 4.8516 12.1912 4.78576 12.357 4.78576C12.5227 4.78576 12.6817 4.8516 12.7989 4.96881L13.2408 5.41074C13.6063 5.77619 14.2355 5.55137 14.3007 5.06286C14.3009 5.06095 14.3012 5.05905 14.3015 5.05715L14.7434 1.96362ZM13.8596 0.0191512C15.0967 -0.157583 16.1575 0.903259 15.9808 2.1404L15.5393 5.23132C15.3373 6.7259 13.4666 7.40422 12.357 6.2946L7.12962 11.5219C6.3974 12.2542 5.21023 12.2542 4.47802 11.5219C3.74579 10.7898 3.74581 9.60258 4.47801 8.87038L9.70536 3.64301C8.59853 2.53617 9.26971 0.663217 10.7686 0.46074L13.8596 0.019152L13.948 0.637855L13.8596 0.0191512ZM0 3.1253C0 1.39936 1.39912 0.000370123 3.12493 0.000370123H7.6841C8.02927 0.000370123 8.30909 0.280186 8.30909 0.625355C8.30909 0.970525 8.02927 1.25034 7.6841 1.25034H3.12493C2.08943 1.25034 1.24997 2.08973 1.24997 3.1253V12.8751C1.24997 13.9106 2.08944 14.75 3.12493 14.75H12.8747C13.9102 14.75 14.7497 13.9106 14.7497 12.8751V8.31699C14.7497 7.97182 15.0295 7.692 15.3746 7.692C15.7198 7.692 15.9996 7.97182 15.9996 8.31699V12.8751C15.9996 14.6009 14.6005 16 12.8747 16H3.12493C1.3991 16 0 14.6009 0 12.8751V3.1253Z"/>
</svg>
