<svg width="14" height="16" viewBox="0 0 14 16" fill="black" fill-opacity="0.8" xmlns="http://www.w3.org/2000/svg">
<path d="M12.5312 16C12.1861 16 11.9062 15.7202 11.9062 15.375C11.9062 12.9282 9.91559 10.9375 7.46875 10.9375H6.53125C4.08441 10.9375 2.09375 12.9282 2.09375 15.375C2.09375 15.7202 1.81394 16 1.46875 16C1.12356 16 0.84375 15.7202 0.84375 15.375C0.84375 12.2389 3.39516 9.6875 6.53125 9.6875H7.46875C10.6048 9.6875 13.1562 12.2389 13.1562 15.375C13.1562 15.7202 12.8764 16 12.5312 16ZM6.9375 8.4375C4.61128 8.4375 2.71875 6.54497 2.71875 4.21875C2.71875 1.89253 4.61128 0 6.9375 0C9.26372 0 11.1562 1.89253 11.1562 4.21875C11.1562 6.54497 9.26372 8.4375 6.9375 8.4375ZM6.9375 1.25C5.30053 1.25 3.96875 2.58178 3.96875 4.21875C3.96875 5.85572 5.30053 7.1875 6.9375 7.1875C8.57447 7.1875 9.90625 5.85572 9.90625 4.21875C9.90625 2.58178 8.57447 1.25 6.9375 1.25Z"/>
</svg>
