<svg width="16" height="16" viewBox="0 0 16 16" fill="black" fill-opacity="0.8" xmlns="http://www.w3.org/2000/svg">
<path fill-rule="evenodd" clip-rule="evenodd" d="M6.75 1.75C6.40483 1.75 6.125 2.02983 6.125 2.375V3H9.875V2.375C9.875 2.02983 9.59517 1.75 9.25 1.75H6.75ZM11.125 3V2.375C11.125 1.33948 10.2855 0.5 9.25 0.5H6.75C5.71448 0.5 4.875 1.33948 4.875 2.375V3H1.875C0.839478 3 0 3.83948 0 4.875V7.375C0 8.19172 0.521702 8.88563 1.25 9.14313V13.625C1.25 14.6605 2.08948 15.5 3.125 15.5H12.875C13.9105 15.5 14.75 14.6605 14.75 13.625V9.14313C15.4783 8.88562 16 8.19172 16 7.375V4.875C16 3.83948 15.1605 3 14.125 3H11.125ZM1.875 4.25C1.52983 4.25 1.25 4.52983 1.25 4.875V7.375C1.25 7.68523 1.47665 7.94373 1.77337 7.99188L1.77653 7.9924L1.94119 8.01999C1.96677 8.02269 1.99188 8.02692 2.01644 8.0326L5.60328 8.63359C5.94371 8.69063 6.17345 9.01285 6.11641 9.35328C6.05937 9.69371 5.73715 9.92345 5.39672 9.86641L2.5 9.38105V13.625C2.5 13.9702 2.77983 14.25 3.125 14.25H12.875C13.2202 14.25 13.5 13.9702 13.5 13.625V9.38105L10.6033 9.86641C10.2628 9.92345 9.94063 9.69372 9.88359 9.35328C9.82655 9.01285 10.0563 8.69063 10.3967 8.63359L13.9836 8.03259C14.0081 8.02692 14.0332 8.02269 14.0587 8.02L14.2234 7.99241L14.2266 7.99188C14.5234 7.94372 14.75 7.68522 14.75 7.375V4.875C14.75 4.52983 14.4702 4.25 14.125 4.25H1.875ZM8 8C8.34518 8 8.625 8.27982 8.625 8.625V11.125C8.625 11.4702 8.34518 11.75 8 11.75C7.65482 11.75 7.375 11.4702 7.375 11.125V8.625C7.375 8.27982 7.65482 8 8 8Z"/>
</svg>
