<svg width="16" height="16" viewBox="0 0 16 16" fill="black" fill-opacity="0.8" xmlns="http://www.w3.org/2000/svg">
<path fill-rule="evenodd" clip-rule="evenodd" d="M6.125 1.125C6.125 0.779822 6.40482 0.5 6.75 0.5H9.25C9.59518 0.5 9.875 0.779822 9.875 1.125V3.625C9.875 4.66052 9.03552 5.5 8 5.5C6.96448 5.5 6.125 4.66052 6.125 3.625V1.125ZM7.375 1.75V3.625C7.375 3.97017 7.65483 4.25 8 4.25C8.34517 4.25 8.625 3.97017 8.625 3.625V1.75H7.375ZM3.125 4.25C2.08946 4.25 1.25 5.08946 1.25 6.125V12.375C1.25 13.4105 2.08946 14.25 3.125 14.25H12.875C13.9105 14.25 14.75 13.4105 14.75 12.375V6.125C14.75 5.08946 13.9105 4.25 12.875 4.25H11.75C11.4048 4.25 11.125 3.97018 11.125 3.625C11.125 3.27982 11.4048 3 11.75 3H12.875C14.6009 3 16 4.3991 16 6.125V12.375C16 14.1009 14.6009 15.5 12.875 15.5H3.125C1.3991 15.5 0 14.1009 0 12.375V6.125C0 4.3991 1.3991 3 3.125 3H4.375C4.72018 3 5 3.27982 5 3.625C5 3.97018 4.72018 4.25 4.375 4.25H3.125ZM4.375 8C4.02983 8 3.75 8.27983 3.75 8.625V11.125C3.75 11.4702 4.02983 11.75 4.375 11.75H5.5C5.84517 11.75 6.125 11.4702 6.125 11.125V8.625C6.125 8.27983 5.84517 8 5.5 8H4.375ZM2.5 8.625C2.5 7.58948 3.33948 6.75 4.375 6.75H5.5C6.53552 6.75 7.375 7.58948 7.375 8.625V11.125C7.375 12.1605 6.53552 13 5.5 13H4.375C3.33948 13 2.5 12.1605 2.5 11.125V8.625ZM8.625 7.375C8.625 7.02982 8.90482 6.75 9.25 6.75H12.875C13.2202 6.75 13.5 7.02982 13.5 7.375C13.5 7.72018 13.2202 8 12.875 8H9.25C8.90482 8 8.625 7.72018 8.625 7.375ZM8.625 9.875C8.625 9.52982 8.90482 9.25 9.25 9.25H12.875C13.2202 9.25 13.5 9.52982 13.5 9.875C13.5 10.2202 13.2202 10.5 12.875 10.5H9.25C8.90482 10.5 8.625 10.2202 8.625 9.875ZM8.625 12.375C8.625 12.0298 8.90482 11.75 9.25 11.75H12.875C13.2202 11.75 13.5 12.0298 13.5 12.375C13.5 12.7202 13.2202 13 12.875 13H9.25C8.90482 13 8.625 12.7202 8.625 12.375Z"/>
</svg>
