<svg width="16" height="16" viewBox="0 0 16 16" fill="black" fill-opacity="0.8" xmlns="http://www.w3.org/2000/svg">
<path fill-rule="evenodd" clip-rule="evenodd" d="M-7.62939e-05 7.99981C-7.62939e-05 3.51193 3.51195 -9.15527e-05 7.99983 -9.15527e-05C8.87901 -9.15527e-05 10.8435 0.12238 12.6684 1.43097L12.5757 1.09493C12.484 0.762164 12.6794 0.418034 13.0121 0.326294C13.3449 0.234554 13.689 0.429943 13.7808 0.762708L14.4735 3.27551C14.5987 3.53968 14.5242 3.8639 14.2806 4.04455C14.2467 4.07052 14.2097 4.09332 14.1698 4.11235C13.8966 4.24288 13.5691 4.15875 13.3926 3.9127C13.2683 3.73937 13.1399 3.57724 13.0084 3.42561C12.7803 3.17017 12.5297 2.92797 12.2566 2.70179C12.2325 2.68189 12.2104 2.66057 12.1901 2.63805C10.6063 1.37264 8.82515 1.24991 7.99983 1.24991C4.20231 1.24991 1.24993 4.20229 1.24993 7.99981C1.24993 8.68587 1.35315 9.37509 1.55923 10.0401C1.66141 10.3698 1.47696 10.7199 1.14725 10.8221C0.81754 10.9243 0.467426 10.7398 0.365248 10.4101C0.121896 9.62486 -7.62939e-05 8.81089 -7.62939e-05 7.99981ZM7.99993 3.62489C5.58367 3.62489 3.62491 5.58366 3.62491 7.99991C3.62491 10.4162 5.58367 12.3749 7.99993 12.3749C10.4162 12.3749 12.3749 10.4162 12.3749 7.99991C12.3749 5.58366 10.4162 3.62489 7.99993 3.62489ZM2.3749 7.99991C2.3749 4.8933 4.89331 2.37489 7.99993 2.37489C11.1065 2.37489 13.6249 4.8933 13.6249 7.99991C13.6249 11.1065 11.1065 13.6249 7.99993 13.6249C4.89331 13.6249 2.3749 11.1065 2.3749 7.99991ZM7.99992 4.8749C8.3451 4.8749 8.62492 5.15472 8.62492 5.4999V7.9999C8.62492 8.16566 8.55907 8.32463 8.44186 8.44184L6.67493 10.2088C6.43085 10.4529 6.03512 10.4529 5.79104 10.2088C5.54696 9.9647 5.54696 9.56897 5.79104 9.3249L7.37492 7.74102V5.4999C7.37492 5.15472 7.65474 4.8749 7.99992 4.8749ZM14.8526 5.17772C15.1823 5.07554 15.5324 5.25999 15.6346 5.5897C15.878 6.37495 15.9999 7.18893 15.9999 8C15.9999 12.4879 12.4879 15.9999 8.00002 15.9999C7.12084 15.9999 5.15634 15.8774 3.3315 14.5688L3.42415 14.9049C3.51589 15.2377 3.3205 15.5818 2.98773 15.6735C2.65497 15.7653 2.31084 15.5699 2.2191 15.2371L1.49691 12.6175C1.41643 12.3256 1.55679 12.018 1.83003 11.8875C2.10327 11.7569 2.43077 11.8411 2.60728 12.0871C4.37624 14.553 6.95473 14.7499 8.00002 14.7499C11.7975 14.7499 14.7499 11.7975 14.7499 8C14.7499 7.31394 14.6467 6.62473 14.4406 5.95972C14.3384 5.63001 14.5229 5.2799 14.8526 5.17772Z"/>
</svg>
