<svg width="16" height="16" viewBox="0 0 16 16" fill="black" fill-opacity="0.8" xmlns="http://www.w3.org/2000/svg">
<path d="M12.1088 11.8461L8.93942 14.9267C8.69189 15.1673 8.68626 15.563 8.92686 15.8105C9.1662 16.0567 9.56189 16.0648 9.81064 15.823L12.9801 12.7424C13.2276 12.5018 13.2332 12.1061 12.9926 11.8586C12.752 11.6111 12.3564 11.6055 12.1088 11.8461ZM3.25745 3.01981L0.176857 6.18924C-0.063737 6.43674 -0.058112 6.83246 0.189419 7.07302C0.436701 7.31337 0.832388 7.30821 1.0732 7.06046L4.15379 3.89106C4.39439 3.64352 4.38876 3.24784 4.14123 3.00724C3.8937 2.76665 3.49801 2.77231 3.25745 3.01981ZM10.8843 3.34724C10.6402 3.10315 10.2445 3.10315 10.0005 3.34724C9.75639 3.59134 9.75636 3.98706 10.0005 4.23112L11.7682 5.99887C12.0123 6.24293 12.408 6.24296 12.6521 5.99887C12.8962 5.75477 12.8962 5.35906 12.6521 5.11499L10.8843 3.34724ZM8.67461 5.44971C7.63836 5.44971 6.79961 6.28831 6.79961 7.32471C6.79961 8.36096 7.63823 9.19971 8.67461 9.19971C9.69376 9.19971 10.5496 8.37649 10.5496 7.32471C10.5496 6.28843 9.71101 5.44971 8.67461 5.44971ZM8.67461 7.94971C8.3292 7.94971 8.04961 7.67015 8.04961 7.32471C8.04961 6.97931 8.32914 6.69971 8.67461 6.69971C9.02001 6.69971 9.29961 6.97924 9.29961 7.32471C9.29961 7.66962 9.02026 7.94971 8.67461 7.94971Z"/>
<path d="M15.9102 0.625835C15.892 0.489868 15.8297 0.363651 15.7327 0.266651C15.6357 0.169651 15.5094 0.107255 15.3735 0.0890864C12.2943 -0.32235 9.11565 0.69646 6.83306 2.97908L3.81329 5.99886C3.08223 6.72992 3.08223 7.91941 3.81329 8.65051L7.34878 12.1861C8.08153 12.9188 9.26759 12.9189 10.0004 12.1861L13.0202 9.16629C15.217 6.96948 16.3377 3.82549 15.9102 0.625835ZM12.1363 8.28238L9.11656 11.3022C8.87231 11.5464 8.477 11.5464 8.23269 11.3022L4.69716 7.76663C4.45347 7.52295 4.45347 7.12645 4.69716 6.88276L7.71694 3.86299C9.39353 2.18639 11.6941 1.25087 14.0439 1.25087C14.2698 1.25087 14.4961 1.25952 14.7224 1.27699C14.9215 3.85686 13.9739 6.44476 12.1363 8.28238ZM1.48226 10.9821C1.23423 11.2301 0.851699 11.7627 0.395169 13.5166C0.158294 14.4266 0.0154505 15.2325 0.00948176 15.2664C-0.00793528 15.3653 -0.00125018 15.467 0.0289708 15.5628C0.0591917 15.6586 0.112058 15.7457 0.183092 15.8168C0.254125 15.8878 0.341233 15.9407 0.437036 15.9709C0.532838 16.0011 0.634514 16.0078 0.733449 15.9904C0.767293 15.9844 1.57329 15.8416 2.48329 15.6047C4.23719 15.1482 4.76975 14.7656 5.01778 14.5176C5.99478 13.5406 5.99491 11.9592 5.01778 10.9821C4.04079 10.005 2.45938 10.0049 1.48226 10.9821ZM4.13391 13.6337C4.07769 13.6899 3.71919 13.9906 2.17604 14.393C1.9271 14.4576 1.67705 14.5179 1.42601 14.5738C1.48194 14.3228 1.54224 14.0728 1.60688 13.8238C2.00923 12.2807 2.30998 11.9221 2.36616 11.8659C2.85466 11.3774 3.64535 11.3774 4.13391 11.8659C4.62241 12.3544 4.62247 13.1451 4.13391 13.6337Z"/>
</svg>
