<svg width="14" height="16" viewBox="0 0 14 16" fill="black" fill-opacity="0.8" xmlns="http://www.w3.org/2000/svg">
<path fill-rule="evenodd" clip-rule="evenodd" d="M3.81515 3.2014C3.81515 1.43331 5.24847 0 7.01658 0C8.78466 0 10.218 1.43332 10.218 3.2014V5.32285C12.158 5.46631 13.6875 7.08581 13.6875 9.06251V12.25C13.6875 14.321 12.0085 16 9.93747 16H4.06249C1.99144 16 0.3125 14.321 0.3125 12.25V9.06251C0.3125 7.07457 1.8594 5.44789 3.81515 5.32054V3.2014ZM5.06515 5.31252H8.96797V3.2014C8.96797 2.12367 8.0943 1.25 7.01658 1.25C5.93882 1.25 5.06515 2.12368 5.06515 3.2014V5.31252ZM4.06249 6.56252C2.6818 6.56252 1.5625 7.68182 1.5625 9.06251V12.25C1.5625 13.6307 2.6818 14.75 4.06249 14.75H9.93747C11.3182 14.75 12.4375 13.6307 12.4375 12.25V9.06251C12.4375 7.68182 11.3182 6.56252 9.93747 6.56252H4.06249ZM5.12499 10.0313C5.12499 8.99573 5.96446 8.15626 6.99998 8.15626C8.0355 8.15626 8.87498 8.99573 8.87498 10.0313C8.87498 10.8476 8.35322 11.5422 7.62498 11.7996V12.7187C7.62498 13.0639 7.34516 13.3437 6.99998 13.3437C6.65481 13.3437 6.37498 13.0639 6.37498 12.7187V11.7996C5.64674 11.5422 5.12499 10.8476 5.12499 10.0313ZM6.99998 9.40626C6.65482 9.40626 6.37499 9.68609 6.37499 10.0313C6.37499 10.3764 6.65482 10.6562 6.99998 10.6562C7.34515 10.6562 7.62498 10.3764 7.62498 10.0313C7.62498 9.68609 7.34515 9.40626 6.99998 9.40626Z"/>
</svg>
