<svg width="33" height="28" viewBox="0 0 33 28" fill="none" xmlns="http://www.w3.org/2000/svg">
<path d="M7.75 7.75C8.44036 7.75 9 7.19036 9 6.5C9 5.80964 8.44036 5.25 7.75 5.25C7.05964 5.25 6.5 5.80964 6.5 6.5C6.5 7.19036 7.05964 7.75 7.75 7.75Z" fill="#FFCC33"/>
<path d="M17.75 7.75C18.4404 7.75 19 7.19036 19 6.5C19 5.80964 18.4404 5.25 17.75 5.25C17.0596 5.25 16.5 5.80964 16.5 6.5C16.5 7.19036 17.0596 7.75 17.75 7.75Z" fill="#FFCC33"/>
<path d="M5.5 21.5V16.5C5.5 13.7386 7.73856 11.5 10.5 11.5H6.75C3.98856 11.5 1.75 13.7386 1.75 16.5V21.5C1.75 24.2614 3.98856 26.5 6.75 26.5H10.5C7.73856 26.5 5.5 24.2614 5.5 21.5Z" fill="#333333" fill-opacity="0.1"/>
<path d="M6.75 27.75H18.75C21.5046 27.75 23.8486 25.9586 24.6785 23.4796L26.8765 24.7489C27.4462 25.0773 28.0924 25.2502 28.75 25.25C30.8177 25.25 32.5 23.5677 32.5 21.5V16.5C32.5 14.4323 30.8177 12.75 28.75 12.75C28.0924 12.7498 27.4463 12.9226 26.8766 13.2511L24.6784 14.5204C23.8486 12.0414 21.5046 10.25 18.75 10.25H6.75C3.30375 10.25 0.5 13.0538 0.5 16.5V21.5C0.5 24.9463 3.30375 27.75 6.75 27.75ZM28.1269 15.4159C28.3175 15.3058 28.5271 15.25 28.75 15.25C29.4393 15.25 30 15.8108 30 16.5V21.5C30 22.1893 29.4393 22.75 28.75 22.75C28.5272 22.75 28.3175 22.6942 28.1268 22.584L25 20.7784V17.2216L28.1269 15.4159ZM3 16.5C3 14.4323 4.68225 12.75 6.75 12.75H18.75C20.8177 12.75 22.5 14.4323 22.5 16.5V21.5C22.5 23.5677 20.8177 25.25 18.75 25.25H6.75C4.68225 25.25 3 23.5677 3 21.5V16.5ZM2.97581 8.447C3.65931 8.34987 4.13469 7.71706 4.03756 7.03356C4.01252 6.85681 3.99997 6.67852 4 6.5C4 4.43225 5.68225 2.75 7.75 2.75C9.81775 2.75 11.5 4.43225 11.5 6.5C11.5 7.19037 12.0596 7.75 12.75 7.75C13.4404 7.75 14 7.19037 14 6.5C14 4.43225 15.6823 2.75 17.75 2.75C19.8177 2.75 21.5 4.43225 21.5 6.5C21.5 6.67881 21.4874 6.85837 21.4624 7.03362C21.3653 7.71712 21.8407 8.34994 22.5242 8.44706C23.209 8.54438 23.8407 8.06737 23.9376 7.38531C23.979 7.09394 24 6.79606 24 6.5C24 3.05375 21.1963 0.25 17.75 0.25C15.7078 0.25 13.8912 1.2345 12.75 2.75394C11.6088 1.2345 9.79225 0.25 7.75 0.25C4.30375 0.25 1.5 3.05375 1.5 6.5C1.5 6.79606 1.521 7.09394 1.56237 7.38531C1.6595 8.06875 2.2925 8.54419 2.97581 8.447Z" fill="#333333"/>
<path d="M16.25 17.75H18.75C19.4404 17.75 20 17.1904 20 16.5C20 15.8096 19.4404 15.25 18.75 15.25H16.25C15.5596 15.25 15 15.8096 15 16.5C15 17.1904 15.5596 17.75 16.25 17.75Z" fill="#333333"/>
</svg>
