<svg width="31" height="32" viewBox="0 0 31 32" fill="none" xmlns="http://www.w3.org/2000/svg">
<path d="M5.5 23.25V3.75C5.5 2.36931 6.61931 1.25 8 1.25H4.25C2.86931 1.25 1.75 2.36931 1.75 3.75V23.25C1.75 24.6308 2.86931 25.75 4.25 25.75H8C6.61931 25.75 5.5 24.6307 5.5 23.25Z" fill="#333333" fill-opacity="0.1"/>
<path fill-rule="evenodd" clip-rule="evenodd" d="M4.25 2.5C3.55967 2.5 3 3.05967 3 3.75V23.25C3 23.9403 3.55967 24.5 4.25 24.5H19.25C19.9403 24.5 20.5 23.9403 20.5 23.25V6.25C20.5 5.90451 20.3614 5.59371 20.1339 5.36613L17.6339 2.86613C17.4063 2.63853 17.0955 2.5 16.75 2.5H4.25ZM0.5 3.75C0.5 1.67896 2.17896 0 4.25 0H16.75C17.7852 0 18.7244 0.421099 19.4016 1.09837L21.9016 3.59837C22.5788 4.27554 23 5.21474 23 6.25V23.25C23 25.321 21.321 27 19.25 27H4.25C2.17896 27 0.5 25.321 0.5 23.25V3.75ZM25.8661 6.83062C26.3543 6.34246 27.1457 6.34246 27.6339 6.83062L29.4016 8.59837C30.0788 9.27554 30.5 10.2147 30.5 11.25V28.25C30.5 30.321 28.821 32 26.75 32H11.75C11.0596 32 10.5 31.4404 10.5 30.75C10.5 30.0596 11.0596 29.5 11.75 29.5H26.75C27.4403 29.5 28 28.9403 28 28.25V11.25C28 10.9045 27.8614 10.5937 27.6339 10.3661L25.8661 8.59838C25.378 8.11023 25.378 7.31877 25.8661 6.83062Z" fill="#333333"/>
<path fill-rule="evenodd" clip-rule="evenodd" d="M5.5 8.75C5.5 8.05964 6.05964 7.5 6.75 7.5H16.75C17.4404 7.5 18 8.05964 18 8.75C18 9.44036 17.4404 10 16.75 10H6.75C6.05964 10 5.5 9.44036 5.5 8.75ZM5.5 13.75C5.5 13.0596 6.05964 12.5 6.75 12.5H16.75C17.4404 12.5 18 13.0596 18 13.75C18 14.4404 17.4404 15 16.75 15H6.75C6.05964 15 5.5 14.4404 5.5 13.75ZM5.5 18.75C5.5 18.0596 6.05964 17.5 6.75 17.5H11.75C12.4404 17.5 13 18.0596 13 18.75C13 19.4404 12.4404 20 11.75 20H6.75C6.05964 20 5.5 19.4404 5.5 18.75Z" fill="#FFCC33"/>
</svg>
