<svg width="33" height="32" viewBox="0 0 33 32" fill="none" xmlns="http://www.w3.org/2000/svg">
<path d="M11.365 13.0816C10.6928 12.6335 10.25 11.8684 10.25 11C10.25 10.1316 10.6928 9.3665 11.365 8.91838L18.375 4.24507L17.885 3.91838C17.475 3.64483 16.9929 3.49922 16.5 3.5C16.0071 3.49922 15.525 3.64483 15.115 3.91838L7.615 8.91838C6.94281 9.3665 6.5 10.1316 6.5 11C6.5 11.8684 6.94281 12.6335 7.615 13.0816L15.115 18.0816C15.525 18.3552 16.0071 18.5008 16.5 18.5C16.9929 18.5008 17.475 18.3552 17.885 18.0816L18.375 17.7549L11.365 13.0816Z" fill="#333333" fill-opacity="0.1"/>
<path fill-rule="evenodd" clip-rule="evenodd" d="M14.4217 2.87829C15.0171 2.48137 15.7334 2.25 16.5 2.25C17.2666 2.25 17.9829 2.48137 18.5783 2.87829L18.5784 2.87831L26.0784 7.87831C27.0835 8.54841 27.75 9.69615 27.75 11C27.75 12.3038 27.0835 13.4516 26.0784 14.1217L18.5784 19.1217L18.5783 19.1217C17.9829 19.5186 17.2666 19.75 16.5 19.75C15.7334 19.75 15.0171 19.5186 14.4217 19.1217L14.4216 19.1217L7.75 14.6739V21C7.75 21.433 7.96915 21.8154 8.30837 22.0416L15.25 26.6693V23.5C15.25 22.8096 15.8096 22.25 16.5 22.25C17.1904 22.25 17.75 22.8096 17.75 23.5V26.6693L24.6916 22.0416C25.0309 21.8154 25.25 21.433 25.25 21V18.3477C25.25 17.6574 25.8096 17.0977 26.5 17.0977C27.1904 17.0977 27.75 17.6574 27.75 18.3477V21C27.75 22.3038 27.0835 23.4516 26.0784 24.1217L18.5784 29.1217L18.5783 29.1217C17.9829 29.5186 17.2666 29.75 16.5 29.75C15.7334 29.75 15.0171 29.5186 14.4217 29.1217L14.4216 29.1217L6.92162 24.1217C5.91648 23.4516 5.25 22.3038 5.25 21V11C5.25 9.69615 5.91648 8.54841 6.92162 7.87831L14.4216 2.87831L14.4217 2.87829ZM7.75 11C7.75 11.433 7.96915 11.8154 8.30837 12.0416L15.8083 17.0415C15.8083 17.0415 15.8084 17.0416 15.8084 17.0416C16.0059 17.1733 16.2421 17.25 16.5 17.25C16.7579 17.25 16.9941 17.1733 17.1916 17.0416C17.1916 17.0416 17.1917 17.0415 17.1917 17.0415L24.6916 12.0416C25.0309 11.8154 25.25 11.433 25.25 11C25.25 10.567 25.0309 10.1846 24.6916 9.95844L17.1917 4.95846C17.1917 4.95845 17.1916 4.95845 17.1916 4.95844C16.9941 4.82674 16.7579 4.75 16.5 4.75C16.2421 4.75 16.0059 4.82674 15.8084 4.95844C15.8084 4.95845 15.8083 4.95845 15.8083 4.95846L8.30837 9.95844C7.96915 10.1846 7.75 10.567 7.75 11Z" fill="#333333"/>
<path fill-rule="evenodd" clip-rule="evenodd" d="M4.25 2.5C3.55967 2.5 3 3.05967 3 3.75V6.25C3 6.94036 2.44036 7.5 1.75 7.5C1.05964 7.5 0.5 6.94036 0.5 6.25V3.75C0.5 1.67896 2.17896 0 4.25 0H6.75C7.44036 0 8 0.559644 8 1.25C8 1.94036 7.44036 2.5 6.75 2.5H4.25ZM25 1.25C25 0.559644 25.5596 0 26.25 0H28.75C30.821 0 32.5 1.67896 32.5 3.75V6.25C32.5 6.94036 31.9404 7.5 31.25 7.5C30.5596 7.5 30 6.94036 30 6.25V3.75C30 3.05967 29.4403 2.5 28.75 2.5H26.25C25.5596 2.5 25 1.94036 25 1.25ZM1.75 24.5C2.44036 24.5 3 25.0596 3 25.75V28.25C3 28.9403 3.55967 29.5 4.25 29.5H6.75C7.44036 29.5 8 30.0596 8 30.75C8 31.4404 7.44036 32 6.75 32H4.25C2.17896 32 0.5 30.321 0.5 28.25V25.75C0.5 25.0596 1.05964 24.5 1.75 24.5ZM31.25 24.5C31.9404 24.5 32.5 25.0596 32.5 25.75V28.25C32.5 30.321 30.821 32 28.75 32H26.25C25.5596 32 25 31.4404 25 30.75C25 30.0596 25.5596 29.5 26.25 29.5H28.75C29.4403 29.5 30 28.9403 30 28.25V25.75C30 25.0596 30.5596 24.5 31.25 24.5Z" fill="#FFCC33"/>
</svg>
