<svg width="33" height="28" viewBox="0 0 33 28" fill="none" xmlns="http://www.w3.org/2000/svg">
<path d="M5.5 21.5V11.5C5.5 8.73856 7.73856 6.5 10.5 6.5C11.7649 6.5 12.8974 5.73731 13.3859 4.5705C14.1409 2.767 15.9225 1.5 18 1.5H14.25C12.1725 1.5 10.3909 2.767 9.63587 4.5705C9.14737 5.73731 8.01494 6.5 6.75 6.5C3.98856 6.5 1.75 8.73856 1.75 11.5V21.5C1.75 24.2614 3.98856 26.5 6.75 26.5H10.5C7.73856 26.5 5.5 24.2614 5.5 21.5Z" fill="#333333" fill-opacity="0.1"/>
<path d="M26.25 5.25C25.4929 5.25 24.8127 4.79381 24.5171 4.08781C23.5411 1.75644 21.2774 0.25 18.75 0.25H14.25C11.7226 0.25 9.45887 1.75644 8.48281 4.08781C8.18725 4.79381 7.50706 5.25 6.75 5.25C3.30375 5.25 0.5 8.05375 0.5 11.5V21.5C0.5 24.9463 3.30375 27.75 6.75 27.75H26.25C29.6963 27.75 32.5 24.9463 32.5 21.5V11.5C32.5 8.05375 29.6963 5.25 26.25 5.25ZM30 21.5C30 23.5677 28.3177 25.25 26.25 25.25H6.75C4.68225 25.25 3 23.5677 3 21.5V11.5C3 9.43225 4.68225 7.75 6.75 7.75C8.51769 7.75 10.103 6.69144 10.7889 5.05325C11.3747 3.65406 12.7332 2.75 14.25 2.75H18.75C20.2668 2.75 21.6253 3.65406 22.2111 5.05325C22.8969 6.69144 24.4823 7.75 26.25 7.75C28.3177 7.75 30 9.43225 30 11.5V21.5Z" fill="#333333"/>
<path d="M26.25 12.75C26.9404 12.75 27.5 12.1904 27.5 11.5C27.5 10.8096 26.9404 10.25 26.25 10.25C25.5596 10.25 25 10.8096 25 11.5C25 12.1904 25.5596 12.75 26.25 12.75Z" fill="#333333"/>
<path d="M16.5 10.25C13.0538 10.25 10.25 13.0538 10.25 16.5C10.25 19.9462 13.0538 22.75 16.5 22.75C19.9463 22.75 22.75 19.9462 22.75 16.5C22.75 13.0538 19.9463 10.25 16.5 10.25ZM16.5 20.25C14.4323 20.25 12.75 18.5677 12.75 16.5C12.75 14.4323 14.4323 12.75 16.5 12.75C18.5677 12.75 20.25 14.4323 20.25 16.5C20.25 18.5677 18.5677 20.25 16.5 20.25ZM6.75 12.75C6.05963 12.75 5.5 13.3096 5.5 14V19C5.5 19.6904 6.05963 20.25 6.75 20.25C7.44037 20.25 8 19.6904 8 19V14C8 13.3096 7.44037 12.75 6.75 12.75Z" fill="#333333"/>
<path d="M19 5.25H14C13.3096 5.25 12.75 5.80963 12.75 6.5C12.75 7.19037 13.3096 7.75 14 7.75H19C19.6904 7.75 20.25 7.19037 20.25 6.5C20.25 5.80963 19.6904 5.25 19 5.25Z" fill="#FFCC33"/>
</svg>
