<svg width="33" height="32" viewBox="0 0 33 32" fill="none" xmlns="http://www.w3.org/2000/svg">
<path d="M5.5 28.25V18.25C5.5 16.8693 6.61931 15.75 8 15.75H4.25C2.86931 15.75 1.75 16.8693 1.75 18.25V28.25C1.75 29.6307 2.86931 30.75 4.25 30.75H8C6.61931 30.75 5.5 29.6307 5.5 28.25Z" fill="#333333" fill-opacity="0.1"/>
<path d="M19 5C18.3096 5 17.75 5.55963 17.75 6.25V7.5H15.25V6.25C15.25 5.55963 14.6904 5 14 5C13.3096 5 12.75 5.55963 12.75 6.25V8.75C12.75 9.44037 13.3096 10 14 10H19C19.6904 10 20.25 9.44037 20.25 8.75V6.25C20.25 5.55963 19.6904 5 19 5Z" fill="#FFCC33"/>
<path d="M14.25 14.5H4.25C2.18225 14.5 0.5 16.1823 0.5 18.25V28.25C0.5 30.3177 2.18225 32 4.25 32H14.25C16.3177 32 18 30.3177 18 28.25V18.25C18 16.1823 16.3177 14.5 14.25 14.5ZM15.5 28.25C15.5 28.9393 14.9392 29.5 14.25 29.5H4.25C3.56075 29.5 3 28.9393 3 28.25V18.25C3 17.5607 3.56075 17 4.25 17H14.25C14.9392 17 15.5 17.5607 15.5 18.25V28.25ZM24 12.5C24.6904 12.5 25.25 11.9404 25.25 11.25V3.75C25.25 1.68225 23.5677 0 21.5 0H11.5C9.43225 0 7.75 1.68225 7.75 3.75V11.25C7.75 11.9404 8.30963 12.5 9 12.5C9.69038 12.5 10.25 11.9404 10.25 11.25V3.75C10.25 3.06075 10.8108 2.5 11.5 2.5H21.5C22.1893 2.5 22.75 3.06075 22.75 3.75V11.25C22.75 11.9404 23.3096 12.5 24 12.5Z" fill="#333333"/>
<path d="M11.75 19.5C11.0596 19.5 10.5 20.0596 10.5 20.75V22H8V20.75C8 20.0596 7.44037 19.5 6.75 19.5C6.05963 19.5 5.5 20.0596 5.5 20.75V23.25C5.5 23.9404 6.05963 24.5 6.75 24.5H11.75C12.4404 24.5 13 23.9404 13 23.25V20.75C13 20.0596 12.4404 19.5 11.75 19.5ZM28.75 14.5H20.8216C20.1312 14.5 19.5716 15.0596 19.5716 15.75C19.5716 16.4404 20.1312 17 20.8216 17H28.75C29.4393 17 30 17.5608 30 18.25V28.25C30 28.9392 29.4393 29.5 28.75 29.5H20.8216C20.1312 29.5 19.5716 30.0596 19.5716 30.75C19.5716 31.4404 20.1312 32 20.8216 32H28.75C30.8177 32 32.5 30.3177 32.5 28.25V18.25C32.5 16.1823 30.8177 14.5 28.75 14.5Z" fill="#333333"/>
<path d="M21.25 19.5C20.5596 19.5 20 20.0596 20 20.75V23.25C20 23.9404 20.5596 24.5 21.25 24.5H26.25C26.9404 24.5 27.5 23.9404 27.5 23.25V20.75C27.5 20.0596 26.9404 19.5 26.25 19.5C25.5596 19.5 25 20.0596 25 20.75V22H22.5V20.75C22.5 20.0596 21.9404 19.5 21.25 19.5Z" fill="#333333"/>
</svg>
