<svg width="33" height="32" viewBox="0 0 33 32" fill="none" xmlns="http://www.w3.org/2000/svg">
<path d="M4.98507 15.1474C4.00888 14.1714 4.00875 12.5892 4.98495 11.6128L2.48569 14.112C1.50949 15.0882 1.50949 16.6707 2.48569 17.6467C3.4617 18.6228 5.04425 18.6228 6.02026 17.6467L8.51964 15.1474C7.54363 16.1234 5.96108 16.1234 4.98507 15.1474Z" fill="#333333" fill-opacity="0.1"/>
<path fill-rule="evenodd" clip-rule="evenodd" d="M8.67125 6.15909C10.1354 4.69495 12.5092 4.69509 13.9732 6.15906C15.4374 7.62313 15.4374 9.99696 13.9733 11.4611L6.90398 18.5303C5.43991 19.9945 3.06608 19.9945 1.60199 18.5304C0.137881 17.0663 0.137879 14.6925 1.60198 13.2284L8.67125 6.15909ZM12.206 7.92645C11.7179 7.4384 10.9266 7.43842 10.4386 7.92642L3.36932 14.9957C2.88129 15.4838 2.88128 16.275 3.36932 16.763C3.85737 17.2511 4.64864 17.2511 5.13659 16.7631L12.2059 9.69372C12.694 9.20567 12.694 8.41441 12.206 7.92645ZM16.0744 12.9262C16.3718 12.3033 17.1178 12.0395 17.7406 12.3369L21.7753 14.2633C22.1594 14.4469 22.5094 14.6948 22.8102 14.9961C23.2215 15.4067 23.5314 15.9075 23.7154 16.4589L23.7155 16.4592L27.2502 27.0632C27.6836 28.3637 27.3849 29.8596 26.347 30.8994C26.3462 30.9002 26.3454 30.9009 26.3447 30.9017C26.3439 30.9025 26.3432 30.9032 26.3424 30.9039C25.3026 31.9421 23.8066 32.2408 22.5061 31.8073L11.902 28.2726L11.9018 28.2725C11.35 28.0885 10.8488 27.7782 10.4381 27.3665C10.1372 27.0659 9.88973 26.7163 9.7062 26.3326L7.77971 22.2978C7.48233 21.6749 7.74616 20.929 8.36899 20.6316C8.99183 20.3342 9.73781 20.598 10.0352 21.2209L11.9609 25.254C12.0221 25.382 12.1047 25.4987 12.2052 25.599L12.2072 25.601C12.3434 25.7376 12.5097 25.8406 12.6927 25.9016L23.0195 29.3439L15.7406 22.0651C15.2526 21.577 15.2526 20.7858 15.7406 20.2977C16.2287 19.8097 17.0199 19.8097 17.508 20.2977L24.7866 27.5763L21.3445 17.25C21.3444 17.2498 21.3444 17.2497 21.3443 17.2496C21.2832 17.0667 21.1803 16.9005 21.0438 16.7643L21.0416 16.7622C20.9416 16.6619 20.8251 16.5794 20.6973 16.5182L20.6971 16.5181L16.6637 14.5924C16.0409 14.295 15.777 13.549 16.0744 12.9262Z" fill="#333333"/>
<path d="M31.8052 2.36726C32.4225 2.05864 32.6728 1.30799 32.3642 0.690655C32.0555 0.0733179 31.3049 -0.176939 30.6876 0.131691L30.1901 0.38038L30.1901 0.380408C27.008 1.97144 24.9979 5.22379 24.9979 8.7815C24.9979 10.6359 25.5468 12.4487 26.5754 13.9917L29.2399 17.9884C29.7334 18.7286 29.9967 19.5982 29.9967 20.4878C29.9967 21.6333 29.5708 22.6764 28.8669 23.472C28.4095 23.9889 28.4578 24.7787 28.9747 25.2361C29.4916 25.6934 30.2814 25.6451 30.7387 25.1282C31.8314 23.8933 32.4961 22.2667 32.4961 20.4878C32.4961 19.1048 32.0867 17.7527 31.3196 16.602L28.655 12.6052C27.9001 11.4729 27.4973 10.1424 27.4973 8.7815C27.4973 6.1705 28.9725 3.78362 31.3078 2.61595L31.3078 2.61593L31.8052 2.36726Z" fill="#FFCC33"/>
</svg>
