<svg width="33" height="32" viewBox="0 0 33 32" fill="none" xmlns="http://www.w3.org/2000/svg">
<path d="M12.75 16C12.75 12.5053 15.1402 9.56888 18.375 8.73631C17.7624 8.57894 17.1325 8.49954 16.5 8.5C12.3579 8.5 9 11.8579 9 16C9 20.1421 12.3579 23.5 16.5 23.5C17.1474 23.5 17.7757 23.4179 18.375 23.2637C15.1402 22.4311 12.75 19.4947 12.75 16Z" fill="#333333" fill-opacity="0.1"/>
<path fill-rule="evenodd" clip-rule="evenodd" d="M16.5 0C17.1904 0 17.75 0.559644 17.75 1.25V2.30631C24.337 2.90249 29.5975 8.16299 30.1937 14.75H31.25C31.9404 14.75 32.5 15.3096 32.5 16C32.5 16.6904 31.9404 17.25 31.25 17.25H24C23.3096 17.25 22.75 16.6904 22.75 16C22.75 12.5546 19.9454 9.75 16.5 9.75C13.0546 9.75 10.25 12.5546 10.25 16C10.25 19.4454 13.0546 22.25 16.5 22.25C18.3454 22.25 20.0069 21.4469 21.1548 20.1658C21.6155 19.6517 22.4058 19.6084 22.9199 20.0691C23.4341 20.5297 23.4774 21.32 23.0167 21.8342C21.6786 23.3275 19.8318 24.3619 17.75 24.661V27.181C21.8102 26.7298 25.2298 24.1073 26.8111 20.4983C27.0882 19.866 27.8254 19.578 28.4577 19.8551C29.0901 20.1322 29.378 20.8694 29.101 21.5017C27.1358 25.9866 22.8408 29.233 17.75 29.6937V30.75C17.75 31.4404 17.1904 32 16.5 32C15.8096 32 15.25 31.4404 15.25 30.75V29.6937C8.66299 29.0975 3.40249 23.837 2.80631 17.25H1.75C1.05964 17.25 0.5 16.6904 0.5 16C0.5 15.3096 1.05964 14.75 1.75 14.75H2.80631C3.40249 8.16299 8.66299 2.90249 15.25 2.30631V1.25C15.25 0.559644 15.8096 0 16.5 0ZM15.25 4.81904C10.0445 5.39746 5.89746 9.54448 5.31904 14.75H7.83895C8.38836 10.9225 11.4225 7.88836 15.25 7.33895V4.81904ZM17.75 7.33895C21.5774 7.88836 24.6116 10.9225 25.1611 14.75H27.681C27.1025 9.54448 22.9555 5.39746 17.75 4.81904V7.33895ZM7.83895 17.25H5.31904C5.89746 22.4555 10.0445 26.6025 15.25 27.181V24.6611C11.4225 24.1116 8.38836 21.0774 7.83895 17.25Z" fill="#333333"/>
<path fill-rule="evenodd" clip-rule="evenodd" d="M16.5 14.75C15.8096 14.75 15.25 15.3096 15.25 16C15.25 16.6904 15.8096 17.25 16.5 17.25C17.1904 17.25 17.75 16.6904 17.75 16C17.75 15.3096 17.1904 14.75 16.5 14.75ZM12.75 16C12.75 13.9289 14.4289 12.25 16.5 12.25C18.5711 12.25 20.25 13.9289 20.25 16C20.25 18.0711 18.5711 19.75 16.5 19.75C14.4289 19.75 12.75 18.0711 12.75 16Z" fill="#FFCC33"/>
</svg>
