<svg width="33" height="32" viewBox="0 0 33 32" fill="none" xmlns="http://www.w3.org/2000/svg">
<path d="M12.5956 12.9393L10.3868 3.34497H6.63684L8.84559 12.9393C9.22872 14.6037 10.7193 15.845 12.5 15.845H16.25C14.4693 15.845 12.9787 14.6037 12.5956 12.9393Z" fill="#333333" fill-opacity="0.1"/>
<path fill-rule="evenodd" clip-rule="evenodd" d="M0.5 1.25C0.5 0.559644 1.05964 0 1.75 0H4.16462C5.61756 0 6.91047 0.834429 7.52995 2.09475H28.75C30.8206 2.09475 32.4992 3.77292 32.5 5.84329C32.5005 6.30475 32.4158 6.76234 32.25 7.19299L29.6664 13.8932C28.9451 15.764 27.1295 17.0947 25 17.0947H23.75C23.0596 17.0947 22.5 16.535 22.5 15.8447C22.5 15.1543 23.0596 14.5947 23.75 14.5947H25C26.0618 14.5947 26.9719 13.9323 27.3338 12.9937L29.9169 6.29476C29.917 6.29456 29.9171 6.29436 29.9171 6.29416C29.9721 6.15122 30.0002 5.99936 30 5.84621V5.84475C30 5.15442 29.4403 4.59475 28.75 4.59475H8.20716L10.0636 12.659C10.319 13.7683 11.3145 14.5947 12.5 14.5947H18.75C19.4404 14.5947 20 15.1543 20 15.8447C20 16.535 19.4404 17.0947 18.75 17.0947H12.5127C12.5085 17.0947 12.5042 17.0947 12.5 17.0947H11.25C10.5597 17.0947 10 17.6544 10 18.3447C10 19.0351 10.5597 19.5947 11.25 19.5947H28.75C29.4404 19.5947 30 20.1544 30 20.8447C30 21.5351 29.4404 22.0947 28.75 22.0947H11.25C9.17896 22.0947 7.5 20.4158 7.5 18.3447C7.5 17.1985 8.01429 16.1724 8.8247 15.4845C8.2458 14.857 7.82556 14.0808 7.62736 13.2199L5.42483 3.65241C5.42045 3.63511 5.41644 3.61767 5.41279 3.6001L5.38274 3.46955C5.25212 2.90213 4.74695 2.5 4.16462 2.5H1.75C1.05964 2.5 0.5 1.94036 0.5 1.25Z" fill="#333333"/>
<path fill-rule="evenodd" clip-rule="evenodd" d="M11.25 27C10.5596 27 10 27.5596 10 28.25C10 28.9404 10.5596 29.5 11.25 29.5C11.9404 29.5 12.5 28.9404 12.5 28.25C12.5 27.5596 11.9404 27 11.25 27ZM7.5 28.25C7.5 26.1789 9.17893 24.5 11.25 24.5C13.3211 24.5 15 26.1789 15 28.25C15 30.3211 13.3211 32 11.25 32C9.17893 32 7.5 30.3211 7.5 28.25ZM26.25 27C25.5596 27 25 27.5596 25 28.25C25 28.9404 25.5596 29.5 26.25 29.5C26.9404 29.5 27.5 28.9404 27.5 28.25C27.5 27.5596 26.9404 27 26.25 27ZM22.5 28.25C22.5 26.1789 24.1789 24.5 26.25 24.5C28.3211 24.5 30 26.1789 30 28.25C30 30.3211 28.3211 32 26.25 32C24.1789 32 22.5 30.3211 22.5 28.25Z" fill="#FFCC33"/>
</svg>
