<svg width="33" height="32" viewBox="0 0 33 32" fill="none" xmlns="http://www.w3.org/2000/svg">
<path d="M9.45801 15.9741L20.0646 5.36756C22.0172 3.41493 25.183 3.41493 27.1356 5.36756L24.484 2.71593C22.5314 0.763309 19.3656 0.763309 17.413 2.71593L6.80633 13.3225C4.8537 15.2751 4.8537 18.4409 6.80633 20.3936L9.45795 23.0452C7.50539 21.0926 7.50539 17.9267 9.45801 15.9741Z" fill="#333333" fill-opacity="0.1"/>
<path d="M7.93838 24.5628C7.45019 24.0746 6.65869 24.0746 6.17057 24.5628L2.635 28.0984C2.14682 28.5866 2.14688 29.378 2.635 29.8661C3.12313 30.3542 3.91463 30.3543 4.40282 29.8661L7.93832 26.3306C8.4265 25.8424 8.42644 25.0509 7.93838 24.5628ZM4.40282 22.7951C4.89094 22.3069 4.89094 21.5154 4.40282 21.0273C3.91463 20.5391 3.12313 20.5391 2.635 21.0273L0.867253 22.7951C0.379128 23.2832 0.379128 24.0747 0.867253 24.5628C1.35538 25.0509 2.14688 25.051 2.63507 24.5628L4.40282 22.7951ZM9.70607 28.0984L7.93832 29.8661C7.45019 30.3543 7.45019 31.1457 7.93832 31.6339C8.42644 32.122 9.21794 32.1221 9.70613 31.6339L11.4739 29.8661C11.962 29.3779 11.962 28.5865 11.4739 28.0984C10.9857 27.6102 10.1942 27.6102 9.70607 28.0984ZM25.3679 1.83199C22.9255 -0.610445 18.9719 -0.610883 16.5291 1.83199L5.9225 12.4386C3.48 14.8811 3.47963 18.8346 5.92244 21.2774L11.2258 26.5807C13.6626 29.0176 17.6278 29.0177 20.0647 26.5807L30.6713 15.9741C33.1081 13.5372 33.1081 9.57212 30.6713 7.1353L25.3679 1.83199ZM28.9034 14.2064L18.2968 24.8129C16.8348 26.275 14.4556 26.2751 12.9935 24.8129L7.69019 19.5096C6.22469 18.0442 6.22444 15.672 7.69019 14.2063L18.2969 3.59974C19.7623 2.13424 22.1344 2.13405 23.6001 3.59974L28.9034 8.90306C30.3689 10.3686 30.3691 12.7407 28.9034 14.2064Z" fill="#333333"/>
<path d="M25.7567 9.90376L24.0437 10.0284C23.3551 10.0784 22.8376 10.6773 22.8877 11.3658C22.9379 12.0556 23.5382 12.5721 24.2251 12.5218L25.9381 12.3971C26.6266 12.3471 27.1442 11.7483 27.0941 11.0598C27.044 10.3713 26.4465 9.85351 25.7567 9.90376ZM15.4562 18.7967C14.7673 18.7466 14.1689 19.2643 14.1188 19.9528L13.9942 21.6664C13.9441 22.3549 14.4616 22.9537 15.1502 23.0038C15.1811 23.006 15.2117 23.0071 15.2422 23.0071C15.8913 23.0071 16.4398 22.5054 16.4876 21.8478L16.6123 20.1341C16.6623 19.4455 16.1447 18.8468 15.4562 18.7967Z" fill="#333333"/>
<path d="M9.74753 16.5025C9.59815 15.8285 10.0235 15.161 10.6975 15.0116L16.802 13.6587C17.0335 13.6072 17.2455 13.4905 17.413 13.3224C17.581 13.155 17.6977 12.943 17.7492 12.7115L19.1021 6.60696C19.2515 5.93296 19.9187 5.50783 20.593 5.65702C21.267 5.80639 21.6923 6.47389 21.5429 7.14789L20.19 13.2523C20.0357 13.9487 19.6856 14.5864 19.1808 15.0902C18.6769 15.595 18.0392 15.9452 17.3429 16.0995L11.2384 17.4524C10.56 17.6027 9.89597 17.1721 9.74753 16.5025Z" fill="#FFCC33"/>
</svg>
