<svg width="33" height="32" viewBox="0 0 33 32" fill="none" xmlns="http://www.w3.org/2000/svg">
<path d="M11.6621 15.5337L17.7016 9.49409C21.3173 5.87841 26.2038 3.88866 31.2497 3.90097C31.2477 3.0704 31.1915 2.24085 31.0815 1.41759C25.1844 0.629782 19.257 2.63553 15.05 6.84247L9.01043 12.882C8.03412 13.8583 8.03412 15.4413 9.01043 16.4176L11.6621 19.0692C10.6857 18.0929 10.6857 16.51 11.6621 15.5337Z" fill="#333333" fill-opacity="0.1"/>
<path d="M24.7176 23.6925L18.3788 29.8536C17.8837 30.3348 17.8725 31.1262 18.3537 31.6212C18.8323 32.1137 19.6237 32.13 20.1212 31.6463L26.4601 25.4851C26.9551 25.004 26.9664 24.2126 26.4852 23.7175C26.004 23.2225 25.2127 23.2113 24.7176 23.6925ZM7.01485 6.03989L0.853658 12.3788C0.372471 12.8738 0.383721 13.6652 0.878783 14.1463C1.37335 14.627 2.16472 14.6167 2.64635 14.1212L8.80753 7.78239C9.28872 7.28733 9.27747 6.49596 8.78241 6.01477C8.28735 5.53358 7.49597 5.54489 7.01485 6.03989ZM22.2686 6.69477C21.7804 6.20658 20.989 6.20658 20.5008 6.69477C20.0127 7.18296 20.0127 7.97439 20.5008 8.46252L24.0363 11.998C24.5245 12.4861 25.3159 12.4862 25.8041 11.998C26.2923 11.5098 26.2923 10.7184 25.8041 10.2303L22.2686 6.69477ZM17.8492 10.8997C15.7767 10.8997 14.0992 12.5769 14.0992 14.6497C14.0992 16.7222 15.7764 18.3997 17.8492 18.3997C19.8875 18.3997 21.5992 16.7533 21.5992 14.6497C21.5992 12.5771 19.922 10.8997 17.8492 10.8997ZM17.8492 15.8997C17.1583 15.8997 16.5992 15.3406 16.5992 14.6497C16.5992 13.9589 17.1582 13.3997 17.8492 13.3997C18.54 13.3997 19.0992 13.9588 19.0992 14.6497C19.0992 15.3395 18.5405 15.8997 17.8492 15.8997Z" fill="#333333"/>
<path d="M32.3204 1.25204C32.2841 0.980104 32.1593 0.72767 31.9653 0.533669C31.7714 0.339668 31.5189 0.214877 31.247 0.178539C25.0886 -0.644336 18.7313 1.39329 14.1661 5.95854L8.12656 11.9981C6.66444 13.4602 6.66444 15.8392 8.12656 17.3014L15.1976 24.3725C16.6631 25.838 19.0352 25.8382 20.5009 24.3725L26.5404 18.333C30.9341 13.9394 33.1754 7.65135 32.3204 1.25204ZM24.7727 16.5652L18.7331 22.6047C18.2446 23.0932 17.454 23.0933 16.9654 22.6047L9.89431 15.5337C9.40694 15.0463 9.40694 14.2533 9.89431 13.7659L15.9339 7.72635C19.2871 4.37316 23.8883 2.5021 28.5878 2.5021C29.0396 2.5021 29.4923 2.51941 29.9447 2.55435C30.3429 7.7141 28.4479 12.8899 24.7727 16.5652Z" fill="#333333"/>
<path d="M3.4645 21.9644C2.96843 22.4605 2.20337 23.5256 1.29031 27.0334C0.816558 28.8534 0.530871 30.4653 0.518933 30.5331C0.484099 30.731 0.497469 30.9343 0.557911 31.1259C0.618353 31.3175 0.724086 31.4917 0.866153 31.6338C1.00822 31.7759 1.18244 31.8816 1.37404 31.942C1.56565 32.0025 1.769 32.0159 1.96687 31.981C2.03456 31.9691 3.64656 31.6834 5.46656 31.2096C8.97437 30.2966 10.0395 29.5315 10.5356 29.0355C12.4896 27.0815 12.4898 23.9186 10.5356 21.9644C8.58156 20.0103 5.41875 20.0101 3.4645 21.9644ZM8.76781 27.2676C8.65537 27.38 7.93837 27.9815 4.85206 28.7862C4.35417 28.9155 3.85408 29.0361 3.352 29.148C3.46386 28.6459 3.58446 28.1458 3.71375 27.6479C4.51843 24.5616 5.11993 23.8445 5.23231 23.7321C6.20931 22.7551 7.79068 22.755 8.76781 23.7321C9.74481 24.7091 9.74493 26.2905 8.76781 27.2676Z" fill="#FFCC33"/>
</svg>
