<svg width="33" height="32" viewBox="0 0 33 32" fill="none" xmlns="http://www.w3.org/2000/svg">
<path d="M28.75 11.25C28.0596 11.25 27.5 11.8096 27.5 12.5C27.5 13.1904 28.0596 13.75 28.75 13.75C29.4392 13.75 30 14.3108 30 15C30 15.6892 29.4392 16.25 28.75 16.25C28.0596 16.25 27.5 16.8096 27.5 17.5C27.5 18.1904 28.0596 18.75 28.75 18.75C30.8177 18.75 32.5 17.0677 32.5 15C32.5 12.9323 30.8177 11.25 28.75 11.25Z" fill="#333333"/>
<path d="M5.5 17.5V12.5C5.5 11.1215 6.6215 10 8 10H4.25C2.8715 10 1.75 11.1215 1.75 12.5V17.5C1.75 18.8785 2.8715 20 4.25 20H8C6.6215 20 5.5 18.8785 5.5 17.5Z" fill="#333333" fill-opacity="0.1"/>
<path d="M21.6863 0.000518078C21.1516 0.00958774 20.6251 0.132912 20.1419 0.362217C19.6588 0.591522 19.2303 0.921503 18.8853 1.33002L14.0444 7.05683C13.9271 7.19577 13.781 7.30741 13.6161 7.38394C13.4512 7.46047 13.2715 7.50005 13.0898 7.49989H5.5C2.743 7.49989 0.5 9.74289 0.5 12.4999V17.4999C0.5 20.2569 2.743 22.4999 5.5 22.4999H13.0898C13.2715 22.4997 13.4512 22.5393 13.6161 22.6158C13.781 22.6924 13.9271 22.804 14.0444 22.943L18.8853 28.6698C19.2372 29.0864 19.6758 29.4213 20.1705 29.651C20.6651 29.8807 21.204 29.9998 21.7494 29.9999C23.8366 29.9999 25.5 28.259 25.5 26.2027V3.79714C25.5 1.72746 23.8106 -0.0346694 21.6863 0.000518078ZM23 26.2028C23 26.8912 22.4396 27.5108 21.7282 27.4998C21.5499 27.4966 21.3744 27.4554 21.2134 27.3789C21.0523 27.3023 20.9095 27.1922 20.7946 27.056L15.9536 21.3291C15.6019 20.9123 15.1634 20.5773 14.6687 20.3478C14.174 20.1182 13.6351 19.9995 13.0898 20H5.5C4.1215 20 3 18.8785 3 17.5V12.5C3 11.1215 4.1215 9.99996 5.5 9.99996H13.0898C13.6351 10.0004 14.174 9.88172 14.6687 9.65213C15.1634 9.42253 15.602 9.0876 15.9537 8.67077L20.7946 2.94389C20.9096 2.80763 21.0524 2.69754 21.2134 2.62101C21.3744 2.54447 21.55 2.50326 21.7283 2.50014C22.4294 2.48833 23 3.09927 23 3.79714V26.2028ZM9.25 25C8.55962 25 8 25.5596 8 26.25V28.25C8 28.9392 7.43925 29.5 6.75 29.5C6.06075 29.5 5.5 28.9392 5.5 28.25V26.25C5.5 25.5596 4.94037 25 4.25 25C3.55963 25 3 25.5596 3 26.25V28.25C3 30.3177 4.68225 32 6.75 32C8.81775 32 10.5 30.3177 10.5 28.25V26.25C10.5 25.5596 9.94038 25 9.25 25Z" fill="#333333"/>
<path d="M11.75 12.5C11.0596 12.5 10.5 13.0596 10.5 13.75V16.25C10.5 16.9404 11.0596 17.5 11.75 17.5C12.4404 17.5 13 16.9404 13 16.25V13.75C13 13.0596 12.4404 12.5 11.75 12.5Z" fill="#FFCC33"/>
</svg>
