<svg width="33" height="32" viewBox="0 0 33 32" fill="none" xmlns="http://www.w3.org/2000/svg">
<path d="M15.25 16C15.25 13.9019 16.5429 12.1068 18.375 11.3648C17.7794 11.1235 17.1427 10.9996 16.5 11C13.7386 11 11.5 13.2386 11.5 16C11.5 18.7614 13.7386 21 16.5 21C17.1427 21.0004 17.7794 20.8765 18.375 20.6352C16.5429 19.8933 15.25 18.0981 15.25 16Z" fill="#333333" fill-opacity="0.1"/>
<path fill-rule="evenodd" clip-rule="evenodd" d="M27.5 2.5C26.1193 2.5 25 3.61929 25 5C25 5.68751 25.2775 6.31021 25.7267 6.76217C25.7285 6.76402 25.7304 6.76588 25.7323 6.76774C25.7341 6.76961 25.736 6.77148 25.7378 6.77335C26.1898 7.22248 26.8125 7.5 27.5 7.5C28.8807 7.5 30 6.38071 30 5C30 3.61929 28.8807 2.5 27.5 2.5ZM24.96 9.30773C25.7044 9.74759 26.5727 10 27.5 10C30.2614 10 32.5 7.76142 32.5 5C32.5 2.23858 30.2614 0 27.5 0C24.7386 0 22.5 2.23858 22.5 5C22.5 5.92726 22.7524 6.79557 23.1923 7.53996L19.9467 10.7855C18.9587 10.1311 17.7739 9.75 16.5 9.75C15.2261 9.75 14.0413 10.1311 13.0533 10.7855L10.4348 8.16699C9.9466 7.67884 9.15515 7.67884 8.66699 8.16699C8.17884 8.65515 8.17884 9.4466 8.66699 9.93476L11.2855 12.5533C10.851 13.2093 10.537 13.952 10.375 14.75H7.78662C7.27182 13.2935 5.88277 12.25 4.25 12.25C2.17893 12.25 0.5 13.9289 0.5 16C0.5 18.0711 2.17893 19.75 4.25 19.75C5.88277 19.75 7.27182 18.7065 7.78662 17.25H10.375C10.7885 19.287 12.1926 20.9642 14.0626 21.7569L13.4784 24.536C11.6542 24.7899 10.25 26.3559 10.25 28.25C10.25 30.3211 11.9289 32 14 32C16.0711 32 17.75 30.3211 17.75 28.25C17.75 26.8842 17.0198 25.6889 15.9285 25.0332L16.5136 22.25C17.7823 22.2473 18.9622 21.8666 19.9467 21.2145L23.1923 24.46C22.7524 25.2044 22.5 26.0727 22.5 27C22.5 29.7614 24.7386 32 27.5 32C30.2614 32 32.5 29.7614 32.5 27C32.5 24.2386 30.2614 22 27.5 22C26.5727 22 25.7044 22.2524 24.96 22.6923L21.7145 19.4467C22.3689 18.4587 22.75 17.2739 22.75 16C22.75 14.7261 22.3689 13.5413 21.7145 12.5533L24.96 9.30773ZM25.7266 25.2379C25.7285 25.236 25.7304 25.2341 25.7323 25.2323C25.7341 25.2304 25.736 25.2285 25.7379 25.2266C26.1899 24.7775 26.8125 24.5 27.5 24.5C28.8807 24.5 30 25.6193 30 27C30 28.3807 28.8807 29.5 27.5 29.5C26.1193 29.5 25 28.3807 25 27C25 26.3125 25.2775 25.6899 25.7266 25.2379ZM16.5 12.25C14.4289 12.25 12.75 13.9289 12.75 16C12.75 18.0711 14.4289 19.75 16.5 19.75C18.5711 19.75 20.25 18.0711 20.25 16C20.25 13.9289 18.5711 12.25 16.5 12.25ZM4.25 14.75C3.55964 14.75 3 15.3096 3 16C3 16.6904 3.55964 17.25 4.25 17.25C4.94036 17.25 5.5 16.6904 5.5 16C5.5 15.3096 4.94036 14.75 4.25 14.75ZM14 27C13.3096 27 12.75 27.5596 12.75 28.25C12.75 28.9404 13.3096 29.5 14 29.5C14.6904 29.5 15.25 28.9404 15.25 28.25C15.25 27.5596 14.6904 27 14 27Z" fill="#333333"/>
<path fill-rule="evenodd" clip-rule="evenodd" d="M4.25 2.5C3.55964 2.5 3 3.05964 3 3.75C3 4.44036 3.55964 5 4.25 5C4.94036 5 5.5 4.44036 5.5 3.75C5.5 3.05964 4.94036 2.5 4.25 2.5ZM0.5 3.75C0.5 1.67893 2.17893 0 4.25 0C6.32107 0 8 1.67893 8 3.75C8 5.82107 6.32107 7.5 4.25 7.5C2.17893 7.5 0.5 5.82107 0.5 3.75Z" fill="#FFCC33"/>
</svg>
