<svg width="33" height="32" viewBox="0 0 33 32" fill="none" xmlns="http://www.w3.org/2000/svg">
<path d="M5.50091 28.2503C5.50091 26.8697 6.62013 25.7505 8.00071 25.7505H4.25102C2.87044 25.7505 1.75122 26.8697 1.75122 28.2503C1.75122 29.6309 2.87044 30.7501 4.25102 30.7501H8.00071C6.62013 30.7501 5.50091 29.6309 5.50091 28.2503Z" fill="#333333" fill-opacity="0.1"/>
<path fill-rule="evenodd" clip-rule="evenodd" d="M14.8127 5.62334C14.8133 6.31364 14.2541 6.87371 13.5638 6.87431L10.5005 6.87693C7.73936 6.87693 5.50093 9.11535 5.50093 11.8765V21.0633C5.50093 21.7536 4.94133 22.3132 4.25104 22.3132C3.56074 22.3132 3.00114 21.7536 3.00114 21.0633V11.8765C3.00114 7.73493 6.35847 4.37743 10.5 4.37714C10.5002 4.37714 10.5003 4.37714 10.5005 4.37714L13.5617 4.37451C14.252 4.37392 14.8121 4.93304 14.8127 5.62334ZM13.6253 14.5612C13.6253 13.8709 14.1849 13.3113 14.8752 13.3113H19.3748C20.0651 13.3113 20.6247 13.8709 20.6247 14.5612C20.6247 15.2515 20.0651 15.8111 19.3748 15.8111H14.8752C14.1849 15.8111 13.6253 15.2515 13.6253 14.5612ZM28.749 16.7485C29.4393 16.7485 29.9989 17.3081 29.9989 17.9984V21.0633C29.9989 21.7536 29.4393 22.3132 28.749 22.3132C28.0587 22.3132 27.4991 21.7536 27.4991 21.0633V17.9984C27.4991 17.3081 28.0587 16.7485 28.749 16.7485ZM13.6253 19.5608C13.6253 18.8705 14.1849 18.3109 14.8752 18.3109H23.7494C24.4397 18.3109 24.9993 18.8705 24.9993 19.5608C24.9993 20.2511 24.4397 20.8107 23.7494 20.8107H14.8752C14.1849 20.8107 13.6253 20.2511 13.6253 19.5608ZM0.501343 28.2502C0.501343 26.1793 2.18016 24.5005 4.25104 24.5005H28.749C30.82 24.5005 32.4987 26.1793 32.4987 28.2502C32.4987 30.3211 30.8199 31.9999 28.749 31.9999H4.25104C2.18016 31.9999 0.501343 30.3211 0.501343 28.2502ZM4.25104 27.0003C3.56076 27.0003 3.00114 27.5599 3.00114 28.2502C3.00114 28.9405 3.56076 29.5001 4.25104 29.5001H28.749C29.4393 29.5001 29.9989 28.9405 29.9989 28.2502C29.9989 27.5599 29.4393 27.0003 28.749 27.0003H4.25104Z" fill="#333333"/>
<path fill-rule="evenodd" clip-rule="evenodd" d="M23.2494 2.49979C21.3511 2.49979 19.8122 4.03869 19.8122 5.93701C19.8122 7.83534 21.3511 9.37423 23.2494 9.37423C25.1478 9.37423 26.6867 7.83534 26.6867 5.93701C26.6867 4.03869 25.1478 2.49979 23.2494 2.49979ZM17.3124 5.93701C17.3124 2.65809 19.9705 0 23.2494 0C26.5284 0 29.1865 2.65809 29.1865 5.93701C29.1865 9.21593 26.5284 11.874 23.2494 11.874C19.9705 11.874 17.3124 9.21593 17.3124 5.93701ZM28.6151 11.3652C29.1032 10.8771 29.8946 10.8771 30.3827 11.3652L32.1326 13.115C32.6207 13.6032 32.6207 14.3945 32.1326 14.8827C31.6445 15.3708 30.8531 15.3708 30.365 14.8827L28.6151 13.1328C28.127 12.6447 28.127 11.8533 28.6151 11.3652Z" fill="#FFCC33"/>
<path d="M10.8125 14.5625C10.8125 15.2529 10.2529 15.8125 9.5625 15.8125C8.87214 15.8125 8.3125 15.2529 8.3125 14.5625C8.3125 13.8721 8.87214 13.3125 9.5625 13.3125C10.2529 13.3125 10.8125 13.8721 10.8125 14.5625Z" fill="#FFCC33"/>
<path d="M10.8125 19.5625C10.8125 20.2529 10.2529 20.8125 9.5625 20.8125C8.87214 20.8125 8.3125 20.2529 8.3125 19.5625C8.3125 18.8721 8.87214 18.3125 9.5625 18.3125C10.2529 18.3125 10.8125 18.8721 10.8125 19.5625Z" fill="#FFCC33"/>
</svg>
