<svg width="33" height="32" viewBox="0 0 33 32" fill="none" xmlns="http://www.w3.org/2000/svg">
<path d="M5.5 28.25V19.4469L2.96569 17.8953C2.23738 17.4583 1.75 16.6611 1.75 15.75V28.25C1.75 29.6306 2.86925 30.75 4.25 30.75H8C6.61925 30.75 5.5 29.6306 5.5 28.25Z" fill="#333333" fill-opacity="0.1"/>
<path fill-rule="evenodd" clip-rule="evenodd" d="M9.25 2.5C8.55967 2.5 8 3.05967 8 3.75V11.3111C8.00025 11.3256 8.00025 11.3401 8 11.3546V19.5118L15.8628 24.3258C16.0549 24.4402 16.2744 24.5004 16.498 24.5H16.502C16.7256 24.5004 16.9451 24.4402 17.1372 24.3258L25 19.5118V11.3546C24.9997 11.3401 24.9997 11.3256 25 11.3111V3.75C25 3.05967 24.4403 2.5 23.75 2.5H9.25ZM27.5 10.6263V3.75C27.5 1.67896 25.821 0 23.75 0H9.25C7.17896 0 5.5 1.67896 5.5 3.75V10.6263L2.32245 12.5329C1.23343 13.1863 0.5 14.3819 0.5 15.75V28.25C0.5 30.321 2.17896 32 4.25 32H28.75C30.821 32 32.5 30.321 32.5 28.25V23.25C32.5 22.5596 31.9404 22 31.25 22C30.5596 22 30 22.5596 30 23.25V28.25C30 28.9403 29.4403 29.5 28.75 29.5H4.25C3.55967 29.5 3 28.9403 3 28.25V19.382L14.5629 26.4613C14.5661 26.4632 14.5692 26.4651 14.5724 26.467C15.1546 26.8165 15.821 27.0007 16.5 27C17.179 27.0007 17.8454 26.8165 18.4276 26.467L18.4305 26.4653C18.4327 26.464 18.4349 26.4627 18.4371 26.4613L30.6828 18.9639C31.769 18.3098 32.5 17.1159 32.5 15.75C32.5 14.3819 31.7666 13.1863 30.6775 12.5329C30.6775 12.5329 30.6775 12.5329 30.6775 12.5329L27.5 10.6263ZM27.5 13.5418V17.9812L29.3817 16.8292C29.3838 16.8279 29.386 16.8265 29.3882 16.8252L29.3913 16.8234C29.7587 16.6029 30 16.204 30 15.75C30 15.296 29.7587 14.8971 29.3913 14.6766L27.5 13.5418ZM3 15.75C3 16.204 3.24133 16.6029 3.60873 16.8234C3.61194 16.8253 3.61513 16.8272 3.61832 16.8292L5.5 17.9812V13.5418L3.6088 14.6765C3.60878 14.6765 3.60876 14.6765 3.60874 14.6766C3.2413 14.8971 3 15.296 3 15.75Z" fill="#333333"/>
<path fill-rule="evenodd" clip-rule="evenodd" d="M10.5 8.25C10.5 7.55964 11.0596 7 11.75 7H21.25C21.9404 7 22.5 7.55964 22.5 8.25C22.5 8.94036 21.9404 9.5 21.25 9.5H11.75C11.0596 9.5 10.5 8.94036 10.5 8.25ZM10.5 13.25C10.5 12.5596 11.0596 12 11.75 12H21.25C21.9404 12 22.5 12.5596 22.5 13.25C22.5 13.9404 21.9404 14.5 21.25 14.5H11.75C11.0596 14.5 10.5 13.9404 10.5 13.25ZM12.75 18.25C12.75 17.5596 13.3096 17 14 17H19C19.6904 17 20.25 17.5596 20.25 18.25C20.25 18.9404 19.6904 19.5 19 19.5H14C13.3096 19.5 12.75 18.9404 12.75 18.25Z" fill="#FFCC33"/>
</svg>
