<svg width="33" height="32" viewBox="0 0 33 32" fill="none" xmlns="http://www.w3.org/2000/svg">
<path d="M9.75073 22.2978C7.27955 21.4639 5.49999 19.1275 5.49999 16.375V7.50005C5.49999 4.31881 7.87686 1.63963 10.9515 1.23926L7.99998 1.25007C4.54824 1.25007 1.75 4.04831 1.75 7.50005V16.375C1.75 19.8268 4.54824 22.625 7.99998 22.625L9.71473 22.6147C9.72704 22.5091 9.73904 22.4034 9.75073 22.2978Z" fill="#333333" fill-opacity="0.1"/>
<path d="M17.3125 25.0625C17.3125 21.9214 19.8588 19.375 22.9999 19.375H19.2499C16.1088 19.375 13.5625 21.9214 13.5625 25.0625C13.5625 28.2036 16.1088 30.75 19.2499 30.75H22.9999C19.8588 30.75 17.3125 28.2036 17.3125 25.0625Z" fill="#333333" fill-opacity="0.1"/>
<path fill-rule="evenodd" clip-rule="evenodd" d="M7.99998 2.5C5.23854 2.5 3 4.73854 3 7.49998V16.375C3 19.1364 5.23853 21.3749 7.99998 21.3749H8.99998C9.69033 21.3749 10.25 21.9346 10.25 22.6249C10.25 23.3153 9.69033 23.8749 8.99998 23.8749H7.99998C3.85782 23.8749 0.5 20.5171 0.5 16.375V7.49998C0.5 3.35782 3.85782 0 7.99998 0H24.9999C29.1421 0 32.4999 3.35782 32.4999 7.49998V16.375C32.4999 17.0653 31.9403 17.625 31.2499 17.625C30.5596 17.625 29.9999 17.0653 29.9999 16.375V7.49998C29.9999 4.73854 27.7614 2.5 24.9999 2.5H7.99998ZM11.8749 9.55354C11.8749 7.30918 14.3298 5.96562 16.2308 7.09526L20.3475 9.54171C22.2174 10.6529 22.2174 13.3469 20.3475 14.4582L16.2309 16.9046C14.3299 18.0342 11.8749 16.6908 11.8749 14.4463V9.55354ZM14.9537 9.24442C14.683 9.08362 14.3749 9.28955 14.3749 9.55354V14.4463C14.3749 14.7104 14.683 14.9163 14.9537 14.7554L19.0703 12.309C19.3098 12.1667 19.3098 11.8331 19.0704 11.6909L14.9537 9.24442ZM19.2499 20.6249C16.7992 20.6249 14.8125 22.6117 14.8125 25.0624C14.8125 27.5132 16.7992 29.4999 19.2499 29.4999H24.2818C25.2077 29.5004 26.0736 29.2854 26.8377 28.9051C27.8423 28.4049 28.9665 28.311 29.9999 28.587V25.0624C29.9999 22.6117 28.0132 20.6249 25.5624 20.6249H19.2499ZM12.3125 25.0624C12.3125 21.231 15.4185 18.1249 19.2499 18.1249H25.5624C29.3939 18.1249 32.4999 21.231 32.4999 25.0624V30.7499C32.4999 31.2555 32.1954 31.7113 31.7283 31.9048C31.2612 32.0982 30.7235 31.9913 30.366 31.6338L30.253 31.5208C29.6452 30.9129 28.7183 30.7615 27.9519 31.143C26.8467 31.6933 25.5997 32.0005 24.2812 31.9999C24.281 31.9999 24.2808 31.9999 24.2806 31.9999H19.2499C15.4185 31.9999 12.3125 28.8939 12.3125 25.0624Z" fill="#333333"/>
<path d="M19.9374 23.5C20.8004 23.5 21.4999 24.1996 21.4999 25.0625C21.4999 25.9254 20.8004 26.625 19.9374 26.625C19.0744 26.625 18.3749 25.9254 18.3749 25.0625C18.3749 24.1996 19.0744 23.5 19.9374 23.5Z" fill="#FFCC33"/>
<path d="M24.9374 23.5C25.8004 23.5 26.4999 24.1996 26.4999 25.0625C26.4999 25.9254 25.8004 26.625 24.9374 26.625C24.0744 26.625 23.3749 25.9254 23.3749 25.0625C23.3749 24.1996 24.0744 23.5 24.9374 23.5Z" fill="#FFCC33"/>
</svg>
