<svg width="33" height="32" viewBox="0 0 33 32" fill="none" xmlns="http://www.w3.org/2000/svg">
<path d="M9.16117 27.0889C4.27961 22.2073 4.27961 14.2927 9.16117 9.41117C11.1236 7.44873 13.5762 6.27573 16.1249 5.89111C12.3338 5.31911 8.33023 6.49211 5.41117 9.41117C0.529609 14.2927 0.529609 22.2073 5.41117 27.0889C8.3303 30.008 12.3339 31.1808 16.125 30.6087C13.5763 30.2241 11.1236 29.0513 9.16117 27.0889Z" fill="#333333" fill-opacity="0.1"/>
<path fill-rule="evenodd" clip-rule="evenodd" d="M18.3617 7.77496C14.3219 6.19194 9.55567 7.0344 6.29499 10.2951C1.90159 14.6885 1.90159 21.8116 6.29499 26.205C10.6884 30.5984 17.8115 30.5984 22.2049 26.205C25.4656 22.9443 26.308 18.178 24.725 14.1383C24.4732 13.4955 24.79 12.7702 25.4328 12.5184C26.0756 12.2665 26.8008 12.5834 27.0527 13.2261C28.9852 18.1576 27.961 23.9844 23.9727 27.9728C18.603 33.3425 9.89694 33.3425 4.52723 27.9728C-0.842491 22.603 -0.842491 13.897 4.52723 8.5273C8.51556 4.53898 14.3423 3.51481 19.2739 5.44729C19.9166 5.69916 20.2335 6.42441 19.9816 7.06718C19.7298 7.70995 19.0045 8.02683 18.3617 7.77496ZM14.5957 12.0129C12.8782 11.9187 11.1355 12.5257 9.83056 13.8306C7.39428 16.2669 7.39428 20.2331 9.83056 22.6694C12.2668 25.1057 16.2331 25.1057 18.6694 22.6694C19.9743 21.3645 20.5813 19.6217 20.4871 17.9043C20.4493 17.2149 20.9775 16.6255 21.6668 16.5877C22.3561 16.5499 22.9456 17.078 22.9834 17.7674C23.1147 20.1621 22.267 22.6073 20.4372 24.4372L20.4372 24.4372C17.0246 27.8498 11.4754 27.8498 8.06279 24.4372C4.6502 21.0246 4.6502 15.4754 8.06279 12.0628C9.89265 10.2329 12.3379 9.38531 14.7326 9.51662C15.4219 9.55442 15.9501 10.1439 15.9123 10.8332C15.8745 11.5225 15.2851 12.0507 14.5957 12.0129ZM22.2049 10.2951C22.6931 10.7832 22.6931 11.5747 22.2049 12.0628L17.6345 16.6332C17.8688 17.1228 18 17.6711 18 18.25C18 20.3211 16.3211 22 14.25 22C12.1789 22 10.5 20.3211 10.5 18.25C10.5 16.1789 12.1789 14.5 14.25 14.5C14.8289 14.5 15.3772 14.6312 15.8668 14.8655L20.4372 10.2951C20.9253 9.8069 21.7168 9.8069 22.2049 10.2951ZM15.1299 17.3622C14.904 17.1383 14.5932 17 14.25 17C13.5596 17 13 17.5596 13 18.25C13 18.9404 13.5596 19.5 14.25 19.5C14.9403 19.5 15.5 18.9404 15.5 18.25C15.5 17.9068 15.3617 17.5959 15.1378 17.3701C15.1365 17.3688 15.1352 17.3674 15.1339 17.3661C15.1325 17.3648 15.1312 17.3635 15.1299 17.3622Z" fill="#333333"/>
<path fill-rule="evenodd" clip-rule="evenodd" d="M28.9644 1.25004C28.9644 0.744456 28.6599 0.288659 28.1928 0.0951845C27.7257 -0.0982901 27.188 0.00865954 26.8305 0.366163L24.3231 2.87366L23.9727 3.22404C22.5082 4.68847 22.5083 7.06286 23.9727 8.5273C25.4371 9.99179 27.8116 9.99175 29.276 8.5273L32.1338 5.66948C32.4913 5.31199 32.5983 4.77434 32.4048 4.30724C32.2113 3.84015 31.7555 3.5356 31.2499 3.5356H28.9644V1.25004ZM26.4644 4.26785L25.7405 4.99179C25.2524 5.47986 25.2523 6.27136 25.7405 6.75953C26.2286 7.24763 27.0201 7.2477 27.5082 6.75953L28.2322 6.0356H27.7144C27.0241 6.0356 26.4644 5.47596 26.4644 4.7856V4.26785Z" fill="#FFCC33"/>
</svg>
