<svg width="33" height="32" viewBox="0 0 33 32" fill="none" xmlns="http://www.w3.org/2000/svg">
<path d="M5.5 16C5.5 8.36487 11.0201 2.25775 18.375 1.36325C17.7529 1.28768 17.1267 1.24986 16.5 1.25C8.2285 1.25 1.75 7.7285 1.75 16C1.75 24.2715 8.2285 30.75 16.5 30.75C17.1267 30.7501 17.7529 30.7123 18.375 30.6367C11.0201 29.7422 5.5 23.6351 5.5 16Z" fill="#333333" fill-opacity="0.1"/>
<path fill-rule="evenodd" clip-rule="evenodd" d="M28.5983 0.366117C29.0865 0.854272 29.0865 1.64573 28.5983 2.13388C28.0163 2.71593 27.6882 3.36181 27.5829 3.88791C27.4757 4.42432 27.6138 4.68488 27.7144 4.78555C27.8151 4.88622 28.0757 5.02434 28.6121 4.91706C29.1382 4.81183 29.7841 4.48373 30.3661 3.90168C30.8543 3.41352 31.6457 3.41352 32.1339 3.90168C32.622 4.38983 32.622 5.18129 32.1339 5.66945C31.2515 6.55183 30.1758 7.15382 29.1024 7.36851C28.4296 7.50306 27.6952 7.49153 27.0248 7.24301L17.3839 16.8839C16.8957 17.372 16.1043 17.372 15.6161 16.8839C15.128 16.3957 15.128 15.6043 15.6161 15.1161L25.257 5.47524C25.0085 4.80475 24.9969 4.07039 25.1315 3.39762C25.3462 2.32419 25.9482 1.2485 26.8306 0.366117C27.3187 -0.122039 28.1102 -0.122039 28.5983 0.366117Z" fill="#FFCC33"/>
<path fill-rule="evenodd" clip-rule="evenodd" d="M16.5 2.5C8.91886 2.5 3 8.41886 3 16C3 23.5811 8.91886 29.5 16.5 29.5C24.0811 29.5 30 23.5811 30 16C30 13.8782 29.5176 11.8699 28.6575 10.0762C28.359 9.45368 28.6217 8.70708 29.2441 8.40858C29.8666 8.11008 30.6132 8.37272 30.9117 8.99521C31.9299 11.1184 32.5 13.4953 32.5 16C32.5 24.9619 25.4619 32 16.5 32C7.53815 32 0.5 24.9619 0.5 16C0.5 7.03815 7.53815 0 16.5 0C19.0047 0 21.3816 0.570147 23.5048 1.58826C24.1273 1.88676 24.3899 2.63337 24.0914 3.25586C23.7929 3.87834 23.0463 4.14099 22.4238 3.84249C20.6301 2.98235 18.6218 2.5 16.5 2.5ZM16.5 7.25C11.6764 7.25 7.75 11.1764 7.75 16C7.75 20.8236 11.6764 24.75 16.5 24.75C21.3236 24.75 25.25 20.8236 25.25 16V15.9991C25.2505 15.2343 25.1505 14.4726 24.9526 13.7338C24.7739 13.067 25.1696 12.3816 25.8365 12.2029C26.5033 12.0242 27.1887 12.42 27.3674 13.0868C27.6221 14.0372 27.7507 15.017 27.75 16.0009C27.7495 22.2048 22.704 27.25 16.5 27.25C10.2957 27.25 5.25 22.2043 5.25 16C5.25 9.79571 10.2957 4.75 16.5 4.75C17.5058 4.75 18.4828 4.8829 19.4137 5.13272C20.0805 5.31167 20.4759 5.99725 20.297 6.66401C20.118 7.33077 19.4324 7.72622 18.7657 7.54728C18.044 7.3536 17.2847 7.25 16.5 7.25ZM13.8499 11.5821C14.338 12.0703 14.338 12.8617 13.8498 13.3499C13.1686 14.0309 12.75 14.967 12.75 16C12.75 18.0672 14.4328 19.75 16.5 19.75C17.533 19.75 18.4691 19.3314 19.1502 18.6502C19.6383 18.162 20.4297 18.162 20.9179 18.6502C21.4061 19.1383 21.4061 19.9297 20.918 20.4179C19.7886 21.5474 18.2246 22.25 16.5 22.25C13.0521 22.25 10.25 19.4479 10.25 16C10.25 14.2754 10.9526 12.7114 12.0821 11.582C12.5703 11.0939 13.3617 11.0939 13.8499 11.5821Z" fill="#333333"/>
</svg>
