<svg width="33" height="30" viewBox="0 0 33 30" fill="none" xmlns="http://www.w3.org/2000/svg">
<path d="M5.5 23.75V11.25C5.5 8.48844 7.73863 6.25 10.5 6.25H6.75C3.98863 6.25 1.75 8.48844 1.75 11.25V23.75C1.75 26.5114 3.98863 28.75 6.75 28.75H10.5C7.73863 28.75 5.5 26.5114 5.5 23.75Z" fill="#333333" fill-opacity="0.1"/>
<path fill-rule="evenodd" clip-rule="evenodd" d="M6.75 7.5C4.67892 7.5 3 9.17892 3 11.25V23.75C3 25.8211 4.67892 27.5 6.75 27.5H26.25C28.3211 27.5 30 25.8211 30 23.75V11.25C30 9.17892 28.3211 7.5 26.25 7.5H24C23.3096 7.5 22.75 6.94036 22.75 6.25C22.75 5.55964 23.3096 5 24 5H26.25C29.7018 5 32.5 7.79821 32.5 11.25V23.75C32.5 27.2018 29.7018 30 26.25 30H6.75C3.29821 30 0.5 27.2018 0.5 23.75V11.25C0.5 7.79821 3.29821 5 6.75 5H9.25C9.94036 5 10.5 5.55964 10.5 6.25C10.5 6.94036 9.94036 7.5 9.25 7.5H6.75Z" fill="#333333"/>
<path fill-rule="evenodd" clip-rule="evenodd" d="M9.25 15C8.55967 15 8 15.5597 8 16.25V21.25C8 21.9403 8.55967 22.5 9.25 22.5H11.5C12.1903 22.5 12.75 21.9403 12.75 21.25V16.25C12.75 15.5597 12.1903 15 11.5 15H9.25ZM5.5 16.25C5.5 14.179 7.17896 12.5 9.25 12.5H11.5C13.571 12.5 15.25 14.179 15.25 16.25V21.25C15.25 23.321 13.571 25 11.5 25H9.25C7.17896 25 5.5 23.321 5.5 21.25V16.25ZM17.75 13.75C17.75 13.0596 18.3096 12.5 19 12.5H26.25C26.9404 12.5 27.5 13.0596 27.5 13.75C27.5 14.4404 26.9404 15 26.25 15H19C18.3096 15 17.75 14.4404 17.75 13.75ZM17.75 18.75C17.75 18.0596 18.3096 17.5 19 17.5H26.25C26.9404 17.5 27.5 18.0596 27.5 18.75C27.5 19.4404 26.9404 20 26.25 20H19C18.3096 20 17.75 19.4404 17.75 18.75ZM17.75 23.75C17.75 23.0596 18.3096 22.5 19 22.5H26.25C26.9404 22.5 27.5 23.0596 27.5 23.75C27.5 24.4404 26.9404 25 26.25 25H19C18.3096 25 17.75 24.4404 17.75 23.75Z" fill="#333333"/>
<path fill-rule="evenodd" clip-rule="evenodd" d="M12.75 1.25C12.75 0.559644 13.3096 0 14 0H19C19.6904 0 20.25 0.559644 20.25 1.25V6.25C20.25 8.32104 18.571 10 16.5 10C14.429 10 12.75 8.32104 12.75 6.25V1.25ZM15.25 2.5V6.25C15.25 6.94033 15.8097 7.5 16.5 7.5C17.1903 7.5 17.75 6.94033 17.75 6.25V2.5H15.25Z" fill="#FFCC33"/>
</svg>
