<svg width="21" height="32" viewBox="0 0 21 32" fill="none" xmlns="http://www.w3.org/2000/svg">
<path d="M5.5 25.75V6.25C5.5 3.48856 7.73856 1.25 10.5 1.25H6.75C3.98856 1.25 1.75 3.48856 1.75 6.25V25.75C1.75 28.5114 3.98856 30.75 6.75 30.75H10.5C7.73856 30.75 5.5 28.5114 5.5 25.75Z" fill="#333333" fill-opacity="0.1"/>
<path d="M14.25 32H6.75C3.30375 32 0.5 29.1963 0.5 25.75V6.25C0.5 2.80375 3.30375 0 6.75 0H14.25C17.6963 0 20.5 2.80375 20.5 6.25V25.75C20.5 29.1963 17.6963 32 14.25 32ZM6.75 2.5C4.68225 2.5 3 4.18225 3 6.25V25.75C3 27.8177 4.68225 29.5 6.75 29.5H14.25C16.3177 29.5 18 27.8177 18 25.75V6.25C18 4.18225 16.3177 2.5 14.25 2.5H6.75Z" fill="#333333"/>
<path d="M11.75 27H9.25C8.55963 27 8 26.4404 8 25.75C8 25.0596 8.55963 24.5 9.25 24.5H11.75C12.4404 24.5 13 25.0596 13 25.75C13 26.4404 12.4404 27 11.75 27Z" fill="#FFCC33"/>
<path d="M11.75 7.5H9.25C8.55963 7.5 8 6.94037 8 6.25C8 5.55963 8.55963 5 9.25 5H11.75C12.4404 5 13 5.55963 13 6.25C13 6.94037 12.4404 7.5 11.75 7.5Z" fill="#333333"/>
</svg>
