<svg width="33" height="30" viewBox="0 0 33 30" fill="none" xmlns="http://www.w3.org/2000/svg">
<path d="M5.5 1.56957L5.24931 1.45745C4.93411 1.32 4.59387 1.24929 4.25 1.24976C2.86931 1.24976 1.75 2.36907 1.75 3.74976V21.2498C1.75 22.3026 2.40081 23.2034 3.32194 23.5718L5.5 24.4609V1.56957Z" fill="#333333" fill-opacity="0.1"/>
<path d="M2.85406 24.731L15.0996 29.7292L15.1079 29.7325C16.0046 30.0903 17.0046 30.0891 17.9005 29.7292L30.1461 24.731C31.5763 24.1573 32.5001 22.7913 32.5001 21.25V3.74976C32.5001 1.68201 30.8179 -0.000244141 28.7501 -0.000244141C28.2296 -0.000244141 27.7252 0.104756 27.2507 0.311818L27.2403 0.316381L16.995 4.89826C16.6831 5.03301 16.3167 5.03294 16.0048 4.89819L5.75962 0.316381C5.75623 0.314869 5.75284 0.313369 5.74944 0.311881C5.27506 0.104756 4.77063 -0.000244141 4.25 -0.000244141C2.18225 -0.000244141 0.5 1.68201 0.5 3.74976V21.2498C0.5 22.7912 1.42388 24.1572 2.85406 24.731ZM3 3.74976C3 3.06051 3.56075 2.49976 4.25 2.49976C4.42263 2.49976 4.589 2.53382 4.74469 2.60107L14.9904 7.18313L15.0008 7.18769C15.4755 7.39448 15.9879 7.50081 16.5057 7.50002C17.0235 7.49922 17.5356 7.39131 18.0097 7.18307L28.2549 2.60119C28.4113 2.53378 28.5798 2.49923 28.7501 2.49969C29.4393 2.49969 30.0001 3.06044 30.0001 3.74969V21.2499C30.0001 21.7643 29.6914 22.2201 29.2139 22.4112L29.2057 22.4144L16.9603 27.4126C16.6686 27.5282 16.3316 27.5282 16.0399 27.4126L3.79431 22.4146L3.78619 22.4113C3.30856 22.2203 3 21.7643 3 21.2498V3.74976Z" fill="#333333"/>
<path d="M21.7141 22.7181L26.7141 20.7186C27.3551 20.4622 27.6669 19.7348 27.4106 19.0938C27.1542 18.4528 26.4269 18.1409 25.7858 18.3973L20.7858 20.3968C20.1448 20.6531 19.833 21.3806 20.0893 22.0216C20.3445 22.6595 21.0701 22.9756 21.7141 22.7181ZM6.24974 8.71376L11.2497 10.8973C11.8797 11.1724 12.6181 10.8873 12.8955 10.252C13.1718 9.61926 12.8829 8.88245 12.2502 8.60614L7.25024 6.42264C6.61767 6.14639 5.88074 6.43526 5.60442 7.06795C5.32817 7.70064 5.61711 8.43745 6.24974 8.71376ZM20.5492 16.3425C20.7183 16.457 20.913 16.5283 21.1161 16.5502C21.3191 16.5721 21.5245 16.5439 21.7142 16.4681L26.7142 14.4686C26.9462 14.3758 27.145 14.2157 27.2851 14.0088C27.4252 13.8019 27.5 13.5578 27.5 13.308V7.5682C27.5 7.36063 27.4484 7.15633 27.3496 6.97373C27.2509 6.79114 27.1083 6.636 26.9346 6.52232C26.7609 6.40864 26.5617 6.34 26.3548 6.3226C26.148 6.3052 25.9401 6.33958 25.7499 6.42264L20.7499 8.6057C20.527 8.703 20.3373 8.86321 20.2041 9.06668C20.0709 9.27016 20 9.50807 20 9.75126V15.3075C20 15.7222 20.2057 16.11 20.5492 16.3425ZM22.5 10.5695L25 9.47795V12.4616L22.5 13.4613V10.5695ZM12.2141 14.1468L7.21411 12.1473C7.02444 12.0715 6.81908 12.0433 6.61599 12.0652C6.4129 12.0871 6.21827 12.1584 6.04911 12.2729C5.87999 12.3874 5.74151 12.5417 5.64578 12.7221C5.55005 12.9025 5.5 13.1037 5.49999 13.308V19.558C5.49997 19.8078 5.57484 20.0519 5.71492 20.2588C5.855 20.4657 6.05387 20.6258 6.28586 20.7186L11.2859 22.7181C11.4755 22.7939 11.6809 22.8221 11.884 22.8002C12.0871 22.7783 12.2817 22.707 12.4508 22.5925C12.62 22.478 12.7585 22.3237 12.8542 22.1433C12.95 21.9629 13 21.7617 13 21.5575V15.3075C13 15.0576 12.9252 14.8135 12.7851 14.6066C12.645 14.3997 12.4461 14.2396 12.2141 14.1468ZM10.5 19.7113L7.99999 18.7116V15.1541L10.5 16.1538V19.7113Z" fill="#333333"/>
<path d="M17.75 11.2498C17.75 10.5594 17.1904 9.99976 16.5 9.99976C15.8096 9.99976 15.25 10.5594 15.25 11.2498V23.7498C15.25 24.4401 15.8096 24.9998 16.5 24.9998C17.1904 24.9998 17.75 24.4401 17.75 23.7498V11.2498Z" fill="#FFCC33"/>
</svg>
