<svg width="33" height="30" viewBox="0 0 33 30" fill="none" xmlns="http://www.w3.org/2000/svg">
<path d="M21.4645 4.55064C21.2999 3.82283 21.0435 3.15358 20.6486 2.61733C19.7722 1.42689 17.94 1.64626 17.4164 3.02876L16.0646 9.51776C15.6951 10.4935 14.6046 10.985 13.6288 10.6154L11.9677 11.29L15.3978 12.6282C17.1928 13.3285 19.1882 12.2561 19.5947 10.3728L20.5422 5.55864C20.7238 5.07926 21.0628 4.74008 21.4645 4.55064Z" fill="#333333" fill-opacity="0.1"/>
<path d="M28.2778 22.9681C27.9295 22.9681 27.5798 22.9056 27.244 22.7785L6.02629 14.7189C4.39786 14.1022 3.10598 12.8875 2.38998 11.2987C1.67404 9.71005 1.61961 7.93762 2.23673 6.30793L2.24036 6.29849L3.48929 3.07918C3.73898 2.43562 4.46304 2.1163 5.10679 2.36593C5.75042 2.61562 6.06973 3.3398 5.82004 3.98343L4.57298 7.1978C4.19411 8.20174 4.22823 9.29311 4.66923 10.2716C5.11079 11.2515 5.90761 12.0008 6.91273 12.3814L28.1305 20.441C28.3299 20.5165 28.4992 20.4146 28.5628 20.3672C28.6384 20.3108 28.763 20.1872 28.7487 19.9925C28.638 18.4824 27.8874 17.4529 26.5175 16.9324L21.5679 15.1085C21.3361 15.0231 21.1348 14.8709 20.9894 14.6711C20.8441 14.4714 20.7612 14.233 20.7512 13.9862L20.4297 6.05712C20.3215 4.82937 20.0565 3.92155 19.6419 3.35849C19.4364 3.07937 19.1572 3.08449 19.0469 3.09968C18.9312 3.11555 18.7304 3.17668 18.615 3.40412C18.615 3.40412 17.2566 9.89949 17.2335 9.96055C16.7586 11.2144 15.5619 11.988 14.2944 11.9881C13.9156 11.988 13.5401 11.919 13.186 11.7845L7.42686 9.5733C6.78236 9.32587 6.46054 8.6028 6.70798 7.9583C6.95542 7.31387 7.67867 6.99199 8.32292 7.23943L14.0768 9.44862C14.3783 9.56287 14.7196 9.42655 14.8661 9.14143C14.8661 9.14143 16.2242 2.64724 16.2474 2.58618C16.654 1.51237 17.5735 0.778428 18.7071 0.622928C19.8419 0.467241 20.9714 0.947616 21.6552 1.87637C22.3595 2.83312 22.7742 4.13962 22.9229 5.87074C22.9245 5.88949 23.2153 13.0513 23.2153 13.0513L27.3875 14.5888L27.398 14.5927C29.6939 15.4622 31.0591 17.3149 31.242 19.8098C31.315 20.8058 30.8723 21.7633 30.0577 22.3711C29.5302 22.7646 28.9064 22.9681 28.2778 22.9681Z" fill="#333333"/>
<path d="M31.25 29.4062H1.75C1.05963 29.4062 0.5 28.8466 0.5 28.1562C0.5 27.4659 1.05963 26.9062 1.75 26.9062H31.25C31.9404 26.9062 32.5 27.4659 32.5 28.1562C32.5 28.8466 31.9404 29.4062 31.25 29.4062Z" fill="#FFCC33"/>
</svg>
