<svg width="33" height="32" viewBox="0 0 33 32" fill="none" xmlns="http://www.w3.org/2000/svg">
<path d="M5.5 28.25V21C5.5 19.6193 6.61931 18.5 8 18.5H4.25C2.86931 18.5 1.75 19.6193 1.75 21V28.25C1.75 29.6307 2.86931 30.75 4.25 30.75H8C6.61931 30.75 5.5 29.6307 5.5 28.25Z" fill="#333333" fill-opacity="0.1"/>
<path fill-rule="evenodd" clip-rule="evenodd" d="M14 0C14.6904 0 15.25 0.559644 15.25 1.25V5H17.75V3.75C17.75 3.05964 18.3096 2.5 19 2.5C19.6904 2.5 20.25 3.05964 20.25 3.75V5H21.5C23.571 5 25.25 6.67896 25.25 8.75V12.6118L29.9446 14.2473C31.4711 14.7603 32.5 16.1908 32.5 17.8019V28.25C32.5 30.321 30.821 32 28.75 32H24C23.3096 32 22.75 31.4404 22.75 30.75V13.5291C22.7495 13.5098 22.7495 13.4904 22.75 13.471V8.75C22.75 8.05967 22.1903 7.5 21.5 7.5H11.5C10.8097 7.5 10.25 8.05967 10.25 8.75V29.5H12.75V28.25C12.75 26.179 14.429 24.5 16.5 24.5C18.571 24.5 20.25 26.179 20.25 28.25V30.75C20.25 31.4404 19.6904 32 19 32H4.25C2.17896 32 0.5 30.321 0.5 28.25V21C0.5 18.929 2.17896 17.25 4.25 17.25H7.75V8.75C7.75 6.67896 9.42896 5 11.5 5H12.75V1.25C12.75 0.559644 13.3096 0 14 0ZM7.75 19.75H4.25C3.55967 19.75 3 20.3097 3 21V28.25C3 28.9403 3.55967 29.5 4.25 29.5H7.75V19.75ZM15.25 29.5H17.75V28.25C17.75 27.5597 17.1903 27 16.5 27C15.8097 27 15.25 27.5597 15.25 28.25V29.5ZM25.25 15.2591V29.5H28.75C29.4403 29.5 30 28.9403 30 28.25V17.8019C30 17.2639 29.6557 16.7862 29.1453 16.616C29.1399 16.6143 29.1346 16.6125 29.1293 16.6106L25.25 15.2591Z" fill="#333333"/>
<path fill-rule="evenodd" clip-rule="evenodd" d="M12.75 11C12.75 10.3096 13.3096 9.75 14 9.75H19C19.6904 9.75 20.25 10.3096 20.25 11C20.25 11.6904 19.6904 12.25 19 12.25H14C13.3096 12.25 12.75 11.6904 12.75 11ZM12.75 16C12.75 15.3096 13.3096 14.75 14 14.75H19C19.6904 14.75 20.25 15.3096 20.25 16C20.25 16.6904 19.6904 17.25 19 17.25H14C13.3096 17.25 12.75 16.6904 12.75 16ZM12.75 21C12.75 20.3096 13.3096 19.75 14 19.75H19C19.6904 19.75 20.25 20.3096 20.25 21C20.25 21.6904 19.6904 22.25 19 22.25H14C13.3096 22.25 12.75 21.6904 12.75 21Z" fill="#FFCC33"/>
</svg>
