<svg width="33" height="32" viewBox="0 0 33 32" fill="none" xmlns="http://www.w3.org/2000/svg">
<path d="M5.5 21V11C5.5 8.23856 7.73856 6 10.5 6H6.75C3.98856 6 1.75 8.23856 1.75 11V21C1.75 23.7614 3.98856 26 6.75 26H10.5C7.73856 26 5.5 23.7614 5.5 21Z" fill="#333333" fill-opacity="0.1"/>
<path d="M18 18.5C18 17.9202 17.8636 17.3408 17.6054 16.8244L15.1054 11.8244C14.4656 10.5449 13.1798 9.75 11.75 9.75C10.3202 9.75 9.03444 10.5449 8.39456 11.8244L5.8945 16.8245C5.63644 17.3408 5.5 17.9202 5.5 18.5C5.5 20.5677 7.18225 22.25 9.25 22.25H14.25C16.3177 22.25 18 20.5677 18 18.5ZM8 18.5C8 18.3034 8.044 18.1159 8.13062 17.9425L10.6306 12.9426C10.8442 12.5154 11.2731 12.25 11.75 12.25C12.2269 12.25 12.6558 12.5154 12.8694 12.9425L15.3694 17.9424C15.456 18.1155 15.5008 18.3065 15.5001 18.5001C15.5001 19.1893 14.9393 19.7501 14.2501 19.7501H9.25006C8.56075 19.75 8 19.1892 8 18.5Z" fill="#FFCC33"/>
<path d="M26.25 4.75H6.75C3.30375 4.75 0.5 7.55375 0.5 11V21C0.5 24.0183 2.65069 26.5436 5.5 27.1243V30.75C5.5 31.4404 6.05963 32 6.75 32C7.44037 32 8 31.4404 8 30.75V27.25H25V30.75C25 31.4404 25.5596 32 26.25 32C26.9404 32 27.5 31.4404 27.5 30.75V27.1243C30.3493 26.5436 32.5 24.0182 32.5 21V11C32.5 7.55375 29.6963 4.75 26.25 4.75ZM30 21C30 23.0677 28.3177 24.75 26.25 24.75H6.75C4.68225 24.75 3 23.0677 3 21V11C3 8.93225 4.68225 7.25 6.75 7.25H26.25C28.3177 7.25 30 8.93225 30 11V21ZM6.5 0C5.80963 0 5.25 0.559625 5.25 1.25C5.25 1.94037 5.80963 2.5 6.5 2.5H9C9.69038 2.5 10.25 1.94037 10.25 1.25C10.25 0.559625 9.69038 0 9 0H6.5ZM14 1.25C14 1.94037 14.5596 2.5 15.25 2.5H17.75C18.4404 2.5 19 1.94037 19 1.25C19 0.559625 18.4404 0 17.75 0H15.25C14.5596 0 14 0.559625 14 1.25ZM26.5 2.5C27.1904 2.5 27.75 1.94037 27.75 1.25C27.75 0.559625 27.1904 0 26.5 0H24C23.3096 0 22.75 0.559625 22.75 1.25C22.75 1.94037 23.3096 2.5 24 2.5H26.5Z" fill="#333333"/>
<path d="M21.25 12.25H23.75C24.4404 12.25 25 11.6904 25 11C25 10.3096 24.4404 9.75 23.75 9.75H21.25C20.5596 9.75 20 10.3096 20 11C20 11.6904 20.5596 12.25 21.25 12.25ZM26.25 14.75H21.25C20.5596 14.75 20 15.3096 20 16C20 16.6904 20.5596 17.25 21.25 17.25H26.25C26.9404 17.25 27.5 16.6904 27.5 16C27.5 15.3096 26.9404 14.75 26.25 14.75ZM26.25 19.75H21.25C20.5596 19.75 20 20.3096 20 21C20 21.6904 20.5596 22.25 21.25 22.25H26.25C26.9404 22.25 27.5 21.6904 27.5 21C27.5 20.3096 26.9404 19.75 26.25 19.75Z" fill="#333333"/>
</svg>
