<svg width="33" height="32" viewBox="0 0 33 32" fill="none" xmlns="http://www.w3.org/2000/svg">
<path d="M5.5 20.75V3.75C5.5 2.36925 6.61925 1.25 8 1.25H4.25C2.86925 1.25 1.75 2.36925 1.75 3.75V20.75C1.75 22.1306 2.86925 23.25 4.25 23.25H7.75C6.36925 23.25 5.5 22.1306 5.5 20.75Z" fill="#333333" fill-opacity="0.1"/>
<path fill-rule="evenodd" clip-rule="evenodd" d="M4.25 0C2.17896 0 0.5 1.67896 0.5 3.75V20.75C0.5 22.821 2.17896 24.5 4.25 24.5H7.5V25.75C7.5 27.1857 8.3073 28.431 9.48686 29.0602L13.8993 31.4138C14.6014 31.7883 15.4029 32 16.25 32C17.0972 32 17.8987 31.7882 18.6006 31.4139L23.0133 29.0602C24.1927 28.431 25 27.1858 25 25.75V18.25C25 16.8143 24.1927 15.569 23.0131 14.9398C21.447 14.1044 19.9011 13.15 18.2787 12.429C17.6575 12.153 16.9703 12 16.25 12C15.4028 12 14.6014 12.2117 13.8993 12.5861L9.48673 14.9398C8.32033 15.5621 7.5177 16.8106 7.50015 18.2263L7.5 22H4.25C3.55967 22 3 21.4403 3 20.75V3.75C3 3.05967 3.55967 2.5 4.25 2.5H28.75C29.4403 2.5 30 3.05967 30 3.75V20.75C30 21.4403 29.4403 22 28.75 22C28.0596 22 27.5 22.5596 27.5 23.25C27.5 23.9404 28.0596 24.5 28.75 24.5C30.821 24.5 32.5 22.821 32.5 20.75V3.75C32.5 1.67896 30.821 0 28.75 0H4.25ZM10 25.75C10 26.2263 10.266 26.6423 10.6634 26.8543L15 29.1674V24.3422C14.6134 24.2426 14.2443 24.0978 13.8993 23.9138L10 21.8339V25.75ZM10 18.25C10 18.7263 10.266 19.1423 10.6634 19.3543L15.076 21.708C15.4246 21.894 15.8231 22 16.25 22C16.6768 22 17.0754 21.894 17.4242 21.708L21.8366 19.3544C22.234 19.1424 22.5 18.7262 22.5 18.25C22.5 17.7737 22.234 17.3577 21.8366 17.1457L17.424 14.792C17.0754 14.606 16.6769 14.5 16.25 14.5C15.8231 14.5 15.4247 14.6059 15.0759 14.792L10.6634 17.1456C10.266 17.3576 10 17.7738 10 18.25ZM22.5 21.834L18.6006 23.9139C18.2557 24.0978 17.8866 24.2426 17.5 24.3422V29.1675L21.8366 26.8544C22.234 26.6424 22.5 26.2262 22.5 25.75V21.834Z" fill="#333333"/>
<path d="M8 6.25C8 6.94036 7.44036 7.5 6.75 7.5C6.05964 7.5 5.5 6.94036 5.5 6.25C5.5 5.55964 6.05964 5 6.75 5C7.44036 5 8 5.55964 8 6.25Z" fill="#333333"/>
<path d="M13 6.25C13 6.94036 12.4404 7.5 11.75 7.5C11.0596 7.5 10.5 6.94036 10.5 6.25C10.5 5.55964 11.0596 5 11.75 5C12.4404 5 13 5.55964 13 6.25Z" fill="#333333"/>
<path fill-rule="evenodd" clip-rule="evenodd" d="M17.75 6.25C17.75 5.55964 18.3096 5 19 5H26.25C26.9404 5 27.5 5.55964 27.5 6.25C27.5 6.94036 26.9404 7.5 26.25 7.5H19C18.3096 7.5 17.75 6.94036 17.75 6.25Z" fill="#FFCC33"/>
</svg>
