<svg width="33" height="30" viewBox="0 0 33 30" fill="none" xmlns="http://www.w3.org/2000/svg">
<path d="M5.5 25.4541V10.4541C5.5 7.69266 7.73856 5.4541 10.5 5.4541H6.75C3.98856 5.4541 1.75 7.69266 1.75 10.4541V25.4541C1.75 26.8348 2.86931 27.9541 4.25 27.9541C4.88994 27.9541 5.47375 27.7136 5.91612 27.3181L6.13694 27.1206C5.741 26.6783 5.5 26.0944 5.5 25.4541Z" fill="#333333" fill-opacity="0.1"/>
<path d="M6.75 19.2041H10.5C11.1904 19.2041 11.75 18.6445 11.75 17.9541C11.75 17.2637 11.1904 16.7041 10.5 16.7041H6.75C6.05963 16.7041 5.5 17.2637 5.5 17.9541C5.5 18.6445 6.05963 19.2041 6.75 19.2041ZM6.75 14.2041H10.5C11.1904 14.2041 11.75 13.6445 11.75 12.9541C11.75 12.2637 11.1904 11.7041 10.5 11.7041H6.75C6.05963 11.7041 5.5 12.2637 5.5 12.9541C5.5 13.6445 6.05963 14.2041 6.75 14.2041Z" fill="#FFCC33"/>
<path d="M14.0901 17.9541C14.0901 18.6444 14.6497 19.2041 15.3401 19.2041C17.9539 19.2041 20.4113 18.1862 22.2595 16.3379L31.4008 7.1958C32.8663 5.73037 32.8665 3.35818 31.4008 1.89249C29.9387 0.430367 27.5597 0.430367 26.0975 1.89249L16.9562 11.0346C15.108 12.8829 14.0901 15.3402 14.0901 17.9541ZM27.8653 3.6603C28.3526 3.17293 29.1457 3.17293 29.633 3.6603C30.1215 4.14868 30.1217 4.93949 29.633 5.42805L20.4917 14.5702C19.4468 15.6152 18.1402 16.3036 16.7197 16.5744C16.9905 15.154 17.679 13.8474 18.7239 12.8024L27.8653 3.6603Z" fill="#333333"/>
<path d="M4.25 29.2041C5.17226 29.2046 6.06227 28.8648 6.7495 28.2497L8.47744 26.7041H21.25C24.6963 26.7041 27.5 23.9004 27.5 20.4541V17.6502C27.5 16.9598 26.9404 16.4002 26.25 16.4002C25.5596 16.4002 25 16.9598 25 17.6502V20.4541C25 22.5219 23.3177 24.2041 21.25 24.2041H8C7.69251 24.2041 7.39581 24.3174 7.16663 24.5224L5.083 26.3862C4.85394 26.5911 4.55733 26.7043 4.25 26.7041C3.56075 26.7041 3 26.1434 3 25.4541V10.4541C3 8.38635 4.68225 6.7041 6.75 6.7041H17.2343C17.9247 6.7041 18.4843 6.14448 18.4843 5.4541C18.4843 4.76373 17.9247 4.2041 17.2343 4.2041H6.75C3.30369 4.2041 0.5 7.00785 0.5 10.4541V25.4541C0.5 27.5219 2.18225 29.2041 4.25 29.2041Z" fill="#333333"/>
</svg>
