<svg width="33" height="32" viewBox="0 0 33 32" fill="none" xmlns="http://www.w3.org/2000/svg">
<path d="M5.5 27V14.75C5.5 12.6789 7.17894 11 9.25 11H5.5C3.42894 11 1.75 12.6789 1.75 14.75V27C1.75 29.0711 3.42894 30.75 5.5 30.75H9.25C7.17894 30.75 5.5 29.0711 5.5 27Z" fill="#333333" fill-opacity="0.1"/>
<path fill-rule="evenodd" clip-rule="evenodd" d="M5.25 5C5.25 2.23858 7.48858 0 10.25 0H27.5C30.2614 0 32.5 2.23858 32.5 5V17.25C32.5 17.9404 31.9404 18.5 31.25 18.5C30.5596 18.5 30 17.9404 30 17.25V7.5H16.5C14.429 7.5 12.75 5.82104 12.75 3.75V2.5H10.25C8.86929 2.5 7.75 3.61929 7.75 5V6C7.75 6.69036 7.19036 7.25 6.5 7.25C5.80964 7.25 5.25 6.69036 5.25 6V5ZM15.25 2.5V3.75C15.25 4.44033 15.8097 5 16.5 5H30C30 3.61929 28.8807 2.5 27.5 2.5H15.25ZM0.5 14.75C0.5 11.9886 2.73858 9.75 5.5 9.75H22.5C25.2614 9.75 27.5 11.9886 27.5 14.75V27C27.5 29.7614 25.2614 32 22.5 32H5.5C2.73858 32 0.5 29.7614 0.5 27V14.75ZM25 14.75C25 13.3693 23.8807 12.25 22.5 12.25H10.5V13.5C10.5 14.1903 11.0597 14.75 11.75 14.75H25ZM8 12.25V13.5C8 15.571 9.67896 17.25 11.75 17.25H25V27C25 28.3807 23.8807 29.5 22.5 29.5H5.5C4.11929 29.5 3 28.3807 3 27V14.75C3 13.3693 4.11929 12.25 5.5 12.25H8ZM15 21C15 20.3096 15.5596 19.75 16.25 19.75H21.25C21.9404 19.75 22.5 20.3096 22.5 21C22.5 21.6904 21.9404 22.25 21.25 22.25H16.25C15.5596 22.25 15 21.6904 15 21ZM15 26C15 25.3096 15.5596 24.75 16.25 24.75H21.25C21.9404 24.75 22.5 25.3096 22.5 26C22.5 26.6904 21.9404 27.25 21.25 27.25H16.25C15.5596 27.25 15 26.6904 15 26Z" fill="#333333"/>
<path fill-rule="evenodd" clip-rule="evenodd" d="M9.24976 22.25C8.5594 22.25 7.99976 22.8096 7.99976 23.5C7.99976 24.1904 8.5594 24.75 9.24976 24.75C9.94011 24.75 10.4998 24.1904 10.4998 23.5C10.4998 22.8096 9.94011 22.25 9.24976 22.25ZM5.49976 23.5C5.49976 21.4289 7.17869 19.75 9.24976 19.75C11.3208 19.75 12.9998 21.4289 12.9998 23.5C12.9998 25.5711 11.3208 27.25 9.24976 27.25C7.17869 27.25 5.49976 25.5711 5.49976 23.5Z" fill="#FFCC33"/>
</svg>
